<svg width="26" height="22" viewBox="0 0 26 22" fill="none" xmlns="http://www.w3.org/2000/svg">
<path d="M0.3125 2.0625C0.3125 1.09961 1.10547 0.25 2.125 0.25H23.875C24.8379 0.25 25.6875 1.09961 25.6875 2.0625C25.6875 3.08203 24.8379 3.875 23.875 3.875H2.125C1.10547 3.875 0.3125 3.08203 0.3125 2.0625ZM0.3125 11.125C0.3125 10.1621 1.10547 9.3125 2.125 9.3125H23.875C24.8379 9.3125 25.6875 10.1621 25.6875 11.125C25.6875 12.1445 24.8379 12.9375 23.875 12.9375H2.125C1.10547 12.9375 0.3125 12.1445 0.3125 11.125ZM23.875 22H2.125C1.10547 22 0.3125 21.207 0.3125 20.1875C0.3125 19.2246 1.10547 18.375 2.125 18.375H23.875C24.8379 18.375 25.6875 19.2246 25.6875 20.1875C25.6875 21.207 24.8379 22 23.875 22Z" fill="black"/>
</svg>
