<svg width="1448" height="966" viewBox="0 0 1448 966" fill="none" xmlns="http://www.w3.org/2000/svg">
<g clip-path="url(#clip0_1313_700)">
<rect width="1448" height="966" rx="50" fill="white"/>
<path fill-rule="evenodd" clip-rule="evenodd" d="M2076.61 -75.4298C1949.46 -347.368 1621.44 -250.228 1477.74 -453.254C1399.07 -564.392 1272.52 -811.996 909.726 -498.424C676.239 -295.131 803.847 -28.3943 1116.23 90.8016C1198.42 134.27 1235.11 192.899 1258.09 271.083C1281.07 349.266 1229.64 519.642 1323.72 676.082C1606.82 1146.86 2552.77 942.965 2076.61 -75.4298Z" fill="#01BAF2"/>
<path fill-rule="evenodd" clip-rule="evenodd" d="M546.35 984.629C497.873 688.374 155.802 692.736 72.6639 458.302C27.1524 329.971 -27.362 57.2966 -461.705 260.501C-741.645 392.707 -691.311 684.08 -423.064 883.668C-355.781 947.831 -336.4 1014.22 -335.525 1095.71C-334.65 1177.2 -430.437 1327.19 -382.407 1503.31C-237.87 2033.29 727.897 2094.09 546.35 984.629Z" fill="#01BAF2"/>
</g>
<defs>
<clipPath id="clip0_1313_700">
<rect width="1448" height="966" rx="50" fill="white"/>
</clipPath>
</defs>
</svg>
