<svg width="16" height="16" viewBox="0 0 16 16" fill="none" xmlns="http://www.w3.org/2000/svg">
<path fill-rule="evenodd" clip-rule="evenodd" d="M15.0914 3.06151C15.1627 3.16966 15.1944 3.29909 15.1813 3.42795C15.1682 3.5568 15.111 3.67718 15.0194 3.76876L8.12467 10.6628C8.05413 10.7332 7.96613 10.7837 7.86966 10.809L4.99791 11.559C4.90299 11.5838 4.80323 11.5833 4.70856 11.5576C4.61388 11.5319 4.52758 11.4818 4.45821 11.4125C4.38884 11.3431 4.33882 11.2568 4.31311 11.1621C4.28741 11.0674 4.28691 10.9677 4.31166 10.8728L5.06166 8.00176C5.08356 7.91557 5.12486 7.83554 5.18241 7.76776L12.1027 0.852005C12.2081 0.746667 12.3511 0.6875 12.5002 0.6875C12.6492 0.6875 12.7922 0.746667 12.8977 0.852005L15.0194 2.97301C15.0463 3.00001 15.0705 3.02966 15.0914 3.06151ZM13.8262 3.37051L12.5002 2.04526L6.11166 8.43376L5.64291 10.2285L7.43766 9.75976L13.8262 3.37051Z" fill="#0082C2"/>
<path d="M13.7307 11.8697C13.9357 10.1176 14.0011 8.35208 13.9264 6.58967C13.9248 6.54815 13.9317 6.50674 13.9468 6.46803C13.9619 6.42931 13.9849 6.39413 14.0142 6.36467L14.7522 5.62667C14.7723 5.60639 14.7979 5.59236 14.8259 5.58628C14.8538 5.58019 14.8829 5.58231 14.9097 5.59237C14.9365 5.60243 14.9598 5.62 14.9768 5.64299C14.9938 5.66597 15.0038 5.69338 15.0057 5.72192C15.1446 7.81535 15.0919 9.91709 14.8482 12.0009C14.6712 13.5174 13.4532 14.7062 11.9434 14.8749C9.32243 15.1652 6.67741 15.1652 4.05642 14.8749C2.54742 14.7062 1.32867 13.5174 1.15167 12.0009C0.840719 9.34248 0.840719 6.65686 1.15167 3.99842C1.32867 2.48192 2.54667 1.29317 4.05642 1.12442C6.0457 0.903832 8.04996 0.850395 10.0482 0.964671C10.0768 0.966724 10.1042 0.97693 10.1272 0.994079C10.1501 1.01123 10.1677 1.0346 10.1778 1.06144C10.1879 1.08827 10.1901 1.11743 10.1841 1.14548C10.1782 1.17352 10.1643 1.19927 10.1442 1.21967L9.39942 1.96367C9.37025 1.99273 9.33544 2.01551 9.29713 2.0306C9.25882 2.04569 9.21782 2.05278 9.17667 2.05142C7.50924 1.99474 5.83989 2.05866 4.18167 2.24267C3.69713 2.2963 3.24481 2.51171 2.89779 2.85411C2.55076 3.19651 2.3293 3.64589 2.26917 4.12967C1.96846 6.70091 1.96846 9.29843 2.26917 11.8697C2.3293 12.3535 2.55076 12.8028 2.89779 13.1452C3.24481 13.4876 3.69713 13.703 4.18167 13.7567C6.69792 14.0379 9.30192 14.0379 11.8189 13.7567C12.3035 13.703 12.7558 13.4876 13.1028 13.1452C13.4498 12.8028 13.6705 12.3535 13.7307 11.8697Z" fill="#0082C2"/>
</svg>
