<svg width="43" height="44" viewBox="0 0 43 44" fill="none" xmlns="http://www.w3.org/2000/svg">
<path d="M40.8787 31.85C41.312 31.85 41.6454 32.05 41.8787 32.45C42.1454 32.85 42.2787 33.4 42.2787 34.1C42.2787 35.4 41.962 36.4333 41.3287 37.2C39.462 39.4333 37.6454 41 35.8787 41.9C34.1454 42.8 32.0454 43.25 29.5787 43.25C27.8454 43.25 26.2454 43.0333 24.7787 42.6C23.312 42.1667 21.5287 41.5167 19.4287 40.65C17.5287 39.8167 15.6954 39.1333 13.9287 38.6C12.2287 41.7 9.67871 43.25 6.27871 43.25C4.41204 43.25 2.92871 42.8333 1.82871 42C0.695378 41.1333 0.128711 40.0333 0.128711 38.7C0.128711 37.0667 0.912044 35.7167 2.47871 34.65C4.04538 33.55 6.12871 33 8.72871 33H9.37871L10.2787 18.45C10.4787 15.1167 11.0787 12.3667 12.0787 10.2C13.0787 8.03333 14.462 6.18333 16.2287 4.65C17.762 3.31666 19.512 2.31666 21.4787 1.65C23.4454 0.949998 25.5287 0.599998 27.7287 0.599998C31.3287 0.599998 34.0954 1.53333 36.0287 3.4C37.962 5.26666 38.9287 7.7 38.9287 10.7C38.9287 12.7333 38.562 14.3833 37.8287 15.65C37.0954 16.8833 36.0787 17.5 34.7787 17.5C33.8454 17.5 33.112 17.2833 32.5787 16.85C32.0454 16.3833 31.7787 15.7333 31.7787 14.9C31.7787 14.6 31.8454 14.05 31.9787 13.25C32.1787 12.3167 32.2787 11.4833 32.2787 10.75C32.2787 9.35 31.862 8.25 31.0287 7.45C30.2287 6.61666 28.9954 6.2 27.3287 6.2C24.3954 6.2 22.1287 7.16666 20.5287 9.1C18.9287 11 17.912 14 17.4787 18.1L16.3287 29.45C16.162 31.05 15.9454 32.4333 15.6787 33.6C17.812 33.9667 20.4787 34.55 23.6787 35.35C25.5454 35.8167 26.9787 36.15 27.9787 36.35C28.9787 36.55 29.862 36.65 30.6287 36.65C32.562 36.65 34.212 36.3333 35.5787 35.7C36.9787 35.0333 38.2954 33.9833 39.5287 32.55C39.9287 32.0833 40.3787 31.85 40.8787 31.85Z" fill="#01BAF2"/>
</svg>
