<svg width="29" height="29" viewBox="0 0 29 29" fill="none" xmlns="http://www.w3.org/2000/svg">
<path d="M14.5 0.807617C22.2109 0.807617 28.5 7.09668 28.5 14.8076C28.5 22.5732 22.2109 28.8076 14.5 28.8076C11.4922 28.8076 8.75781 27.8779 6.46094 26.3467C5.69531 25.7451 5.47656 24.6514 6.02344 23.8857C6.57031 23.0654 7.66406 22.9014 8.48438 23.4482C10.1797 24.6514 12.2578 25.3076 14.5 25.3076C20.2969 25.3076 25 20.6045 25 14.8076C25 9.01074 20.2969 4.30762 14.5 4.30762C11.5469 4.30762 8.97656 5.51074 7.0625 7.4248L8.75781 9.06543C9.57812 9.94043 8.97656 11.3076 7.82812 11.3076H1.8125C1.04688 11.3076 0.5 10.7607 0.5 9.99512V3.97949C0.5 2.83105 1.86719 2.22949 2.6875 3.0498L4.54688 4.90918C7.11719 2.39355 10.6172 0.807617 14.4453 0.807617H14.5ZM14.5 7.80762C15.2109 7.80762 15.8125 8.40918 15.8125 9.12012V14.3154L19.3125 17.8154C19.8594 18.3623 19.8594 19.1826 19.3125 19.6748C18.8203 20.2217 18 20.2217 17.5078 19.6748L13.5703 15.7373C13.2969 15.5186 13.1875 15.1904 13.1875 14.8076V9.12012C13.1875 8.40918 13.7344 7.80762 14.5 7.80762Z" fill="#01BAF2"/>
</svg>
