<svg width="22" height="22" viewBox="0 0 22 22" fill="none" xmlns="http://www.w3.org/2000/svg">
<path d="M11 0.73338L11.4766 0.176048C11.3438 0.0624332 11.1748 0 11 0C10.8252 0 10.6561 0.0624332 10.5233 0.176048L11 0.73338ZM0.733332 9.53336L0.256666 8.97603L0 9.19603V9.53336H0.733332ZM8.06665 21.2667V22C8.26114 22 8.44767 21.9227 8.58519 21.7852C8.72272 21.6477 8.79998 21.4612 8.79998 21.2667H8.06665ZM13.9333 21.2667H13.2C13.2 21.4612 13.2772 21.6477 13.4148 21.7852C13.5523 21.9227 13.7388 22 13.9333 22V21.2667ZM21.2666 9.53336H22V9.19603L21.7433 8.97603L21.2666 9.53336ZM2.2 22H8.06665V20.5333H2.2V22ZM21.7433 8.97603L11.4766 0.176048L10.5233 1.29071L20.79 10.0907L21.7433 8.97603ZM10.5233 0.176048L0.256666 8.97603L1.21 10.0907L11.4766 1.29071L10.5233 0.176048ZM8.79998 21.2667V16.8667H7.33332V21.2667H8.79998ZM13.2 16.8667V21.2667H14.6666V16.8667H13.2ZM13.9333 22H19.8V20.5333H13.9333V22ZM22 19.8V9.53336H20.5333V19.8H22ZM0 9.53336V19.8H1.46666V9.53336H0ZM11 14.6667C11.5835 14.6667 12.143 14.8985 12.5556 15.311C12.9682 15.7236 13.2 16.2832 13.2 16.8667H14.6666C14.6666 15.8942 14.2803 14.9616 13.5927 14.274C12.9051 13.5863 11.9724 13.2 11 13.2V14.6667ZM11 13.2C10.0275 13.2 9.09489 13.5863 8.40726 14.274C7.71963 14.9616 7.33332 15.8942 7.33332 16.8667H8.79998C8.79998 16.2832 9.03177 15.7236 9.44434 15.311C9.85692 14.8985 10.4165 14.6667 11 14.6667V13.2ZM19.8 22C20.3834 22 20.943 21.7682 21.3556 21.3556C21.7682 20.9431 22 20.3835 22 19.8H20.5333C20.5333 19.9945 20.456 20.181 20.3185 20.3185C20.181 20.4561 19.9944 20.5333 19.8 20.5333V22ZM2.2 20.5333C2.0055 20.5333 1.81898 20.4561 1.68145 20.3185C1.54392 20.181 1.46666 19.9945 1.46666 19.8H0C0 20.3835 0.231784 20.9431 0.644364 21.3556C1.05694 21.7682 1.61652 22 2.2 22V20.5333Z" fill="black"/>
</svg>
