<svg width="133" height="63" viewBox="0 0 133 63" fill="none" xmlns="http://www.w3.org/2000/svg">
<path d="M59.5186 45.721C60.1513 45.721 60.6379 46.013 60.9786 46.597C61.3679 47.181 61.5626 47.984 61.5626 49.006C61.5626 50.904 61.1003 52.4127 60.1756 53.532C57.4503 56.7927 54.7979 59.08 52.2186 60.394C49.6879 61.708 46.6219 62.365 43.0206 62.365C40.4899 62.365 38.1539 62.0487 36.0126 61.416C33.8713 60.7833 31.2676 59.8343 28.2016 58.569C25.4276 57.3523 22.7509 56.3547 20.1716 55.576C17.6896 60.102 13.9666 62.365 9.0026 62.365C6.27727 62.365 4.1116 61.7567 2.5056 60.54C0.850935 59.2747 0.0236015 57.6687 0.0236015 55.722C0.0236015 53.3373 1.16727 51.3663 3.4546 49.809C5.74194 48.203 8.7836 47.4 12.5796 47.4H13.5286L14.8426 26.157C15.1346 21.2903 16.0106 17.2753 17.4706 14.112C18.9306 10.9487 20.9503 8.24767 23.5296 6.009C25.7683 4.06233 28.3233 2.60233 31.1946 1.629C34.0659 0.606997 37.1076 0.0959964 40.3196 0.0959964C45.5756 0.0959964 49.6149 1.45866 52.4376 4.184C55.2603 6.90933 56.6716 10.462 56.6716 14.842C56.6716 17.8107 56.1363 20.2197 55.0656 22.069C53.9949 23.8697 52.5106 24.77 50.6126 24.77C49.2499 24.77 48.1793 24.4537 47.4006 23.821C46.6219 23.1397 46.2326 22.1907 46.2326 20.974C46.2326 20.536 46.3299 19.733 46.5246 18.565C46.8166 17.2023 46.9626 15.9857 46.9626 14.915C46.9626 12.871 46.3543 11.265 45.1376 10.097C43.9696 8.88033 42.1689 8.272 39.7356 8.272C35.4529 8.272 32.1436 9.68333 29.8076 12.506C27.4716 15.28 25.9873 19.66 25.3546 25.646L23.6756 42.217C23.4323 44.553 23.1159 46.5727 22.7266 48.276C25.8413 48.8113 29.7346 49.663 34.4066 50.831C37.1319 51.5123 39.2246 51.999 40.6846 52.291C42.1446 52.583 43.4343 52.729 44.5536 52.729C47.3763 52.729 49.7853 52.2667 51.7806 51.342C53.8246 50.3687 55.7469 48.8357 57.5476 46.743C58.1316 46.0617 58.7886 45.721 59.5186 45.721ZM64.1178 62.365C61.1004 62.365 58.6914 61.27 56.8908 59.08C55.0901 56.89 54.1898 54.0187 54.1898 50.466C54.1898 46.5727 55.0901 42.8983 56.8908 39.443C58.6914 35.939 61.0761 33.1407 64.0448 31.048C67.0621 28.9067 70.2498 27.836 73.6078 27.836C74.6784 27.836 75.3841 28.055 75.7248 28.493C76.1141 28.8823 76.4304 29.6123 76.6738 30.683C77.6958 30.4883 78.7664 30.391 79.8858 30.391C82.2704 30.391 83.4628 31.2427 83.4628 32.946C83.4628 33.968 83.0978 36.4013 82.3678 40.246C81.2484 45.8427 80.6888 49.736 80.6888 51.926C80.6888 52.656 80.8591 53.24 81.1998 53.678C81.5891 54.116 82.0758 54.335 82.6598 54.335C83.5844 54.335 84.7038 53.751 86.0178 52.583C87.3318 51.3663 89.1081 49.4197 91.3468 46.743C91.9308 46.0617 92.5878 45.721 93.3178 45.721C93.9504 45.721 94.4371 46.013 94.7778 46.597C95.1671 47.181 95.3618 47.984 95.3618 49.006C95.3618 50.9527 94.8994 52.4613 93.9748 53.532C91.9794 56.014 89.8624 58.1067 87.6238 59.81C85.3851 61.5133 83.2194 62.365 81.1268 62.365C79.5208 62.365 78.0364 61.8297 76.6738 60.759C75.3598 59.6397 74.3621 58.131 73.6808 56.233C71.1501 60.321 67.9624 62.365 64.1178 62.365ZM66.7458 54.992C67.8164 54.992 68.8384 54.3593 69.8118 53.094C70.7851 51.8287 71.4908 50.1497 71.9288 48.057L74.6298 34.625C72.5858 34.6737 70.6878 35.4523 68.9358 36.961C67.2324 38.421 65.8698 40.3677 64.8478 42.801C63.8258 45.2343 63.3148 47.8137 63.3148 50.539C63.3148 52.0477 63.6068 53.167 64.1908 53.897C64.8234 54.627 65.6751 54.992 66.7458 54.992ZM102.872 62.365C98.1025 62.365 94.3795 61.0267 91.7028 58.35C89.0748 55.6247 87.7608 52.0477 87.7608 47.619C87.7608 43.677 88.5395 40.2217 90.0968 37.253C91.6541 34.2843 93.6738 31.997 96.1558 30.391C98.6378 28.785 101.241 27.982 103.967 27.982C106.643 27.982 108.712 28.785 110.172 30.391C111.68 31.9483 112.435 33.968 112.435 36.45C112.435 38.494 111.972 40.2217 111.048 41.633C110.172 43.0443 109.004 43.75 107.544 43.75C106.619 43.75 105.865 43.531 105.281 43.093C104.745 42.655 104.478 42.0467 104.478 41.268C104.478 40.9273 104.526 40.538 104.624 40.1C104.721 39.662 104.794 39.3457 104.843 39.151C105.086 38.421 105.208 37.7397 105.208 37.107C105.208 36.4743 105.037 35.9877 104.697 35.647C104.405 35.3063 103.967 35.136 103.383 35.136C102.263 35.136 101.217 35.647 100.244 36.669C99.2705 37.6423 98.4918 38.9807 97.9078 40.684C97.3238 42.3873 97.0318 44.261 97.0318 46.305C97.0318 51.9503 99.4895 54.773 104.405 54.773C106.4 54.773 108.541 54.116 110.829 52.802C113.165 51.4393 115.452 49.4197 117.691 46.743C118.275 46.0617 118.932 45.721 119.662 45.721C120.294 45.721 120.781 46.013 121.122 46.597C121.511 47.181 121.706 47.984 121.706 49.006C121.706 50.8553 121.243 52.364 120.319 53.532C118.031 56.3547 115.282 58.5447 112.07 60.102C108.906 61.6107 105.84 62.365 102.872 62.365ZM125.379 23.164C123.335 23.164 121.802 22.7017 120.78 21.777C119.758 20.8037 119.247 19.4653 119.247 17.762C119.247 16.0587 119.904 14.6473 121.218 13.528C122.58 12.36 124.259 11.776 126.255 11.776C128.055 11.776 129.515 12.214 130.635 13.09C131.754 13.966 132.314 15.207 132.314 16.813C132.314 18.7597 131.681 20.317 130.416 21.485C129.15 22.6043 127.471 23.164 125.379 23.164ZM118.371 62.365C116.813 62.365 115.743 62.0487 115.159 61.416C114.575 60.7833 114.283 59.7857 114.283 58.423C114.283 58.0337 114.331 57.3523 114.429 56.379C115.207 47.473 116.497 39.37 118.298 32.07C118.687 30.5613 119.32 29.515 120.196 28.931C121.12 28.2983 122.58 27.982 124.576 27.982C126.668 27.982 127.715 28.8337 127.715 30.537C127.715 30.7803 127.666 31.2427 127.569 31.924C125.379 42.3387 124.065 51.0743 123.627 58.131C123.529 59.6883 123.067 60.7833 122.24 61.416C121.412 62.0487 120.123 62.365 118.371 62.365Z" fill="black"/>
</svg>
