<svg width="20" height="20" viewBox="0 0 20 20" fill="none" xmlns="http://www.w3.org/2000/svg">
<path d="M12.5 8.33333L11.6783 8.19667C11.6585 8.316 11.6649 8.43821 11.697 8.55483C11.7292 8.67144 11.7863 8.77966 11.8645 8.87196C11.9427 8.96426 12.0401 9.03844 12.1498 9.08933C12.2595 9.14022 12.379 9.16661 12.5 9.16667V8.33333ZM3.33333 8.33333V7.5C3.11232 7.5 2.90036 7.5878 2.74408 7.74408C2.5878 7.90036 2.5 8.11232 2.5 8.33333H3.33333ZM5 17.5H14.4667V15.8333H5V17.5ZM15.4667 7.5H12.5V9.16667H15.4667V7.5ZM13.3225 8.47L13.9933 4.44083L12.35 4.16667L11.6783 8.19667L13.3225 8.47ZM12.35 2.5H12.1717V4.16667H12.35V2.5ZM9.3975 3.98417L7.3025 7.12917L8.68917 8.05417L10.7858 4.90917L9.3975 3.98417ZM6.60833 7.5H3.33333V9.16667H6.60833V7.5ZM2.5 8.33333V15H4.16667V8.33333H2.5ZM16.9183 15.49L17.9183 10.49L16.285 10.1633L15.285 15.1633L16.9183 15.49ZM7.3025 7.12917C7.22638 7.24326 7.12243 7.33681 7.00149 7.4015C6.88054 7.46619 6.74549 7.50002 6.60833 7.5V9.16667C7.01989 9.16664 7.42507 9.065 7.78792 8.87079C8.15077 8.67657 8.46006 8.39578 8.68833 8.05333L7.3025 7.12917ZM13.9933 4.44083C14.0331 4.20211 14.0205 3.95759 13.9562 3.72426C13.892 3.49092 13.7777 3.27438 13.6213 3.08968C13.4649 2.90498 13.2702 2.75655 13.0507 2.65472C12.8311 2.55289 12.592 2.50009 12.35 2.5V4.16667L13.9933 4.44083ZM15.4667 9.16667C15.59 9.16662 15.7118 9.19394 15.8232 9.24665C15.9347 9.29937 16.0331 9.37617 16.1113 9.47151C16.1895 9.56685 16.2456 9.67836 16.2755 9.798C16.3054 9.91763 16.3092 10.0424 16.285 10.1633L17.9183 10.49C17.9908 10.1274 17.9819 9.75319 17.8924 9.3944C17.8028 9.03562 17.6347 8.70117 17.4003 8.41517C17.1659 8.12918 16.8709 7.89875 16.5367 7.74049C16.2025 7.58224 15.8373 7.5001 15.4675 7.5L15.4667 9.16667ZM14.4667 17.5C15.0447 17.5 15.6049 17.2998 16.0519 16.9333C16.4988 16.5668 16.805 16.0568 16.9183 15.49L15.285 15.1633C15.2472 15.3525 15.145 15.5226 14.9957 15.6448C14.8465 15.767 14.6595 15.8336 14.4667 15.8333V17.5ZM12.1717 2.5C11.6229 2.50001 11.0827 2.63548 10.5989 2.89438C10.1151 3.15329 9.7019 3.52763 9.3975 3.98417L10.7858 4.90917C10.938 4.68082 11.1433 4.49357 11.3852 4.36404C11.6271 4.23452 11.8973 4.16672 12.1717 4.16667V2.5ZM5 15.8333C4.77899 15.8333 4.56702 15.7455 4.41074 15.5893C4.25446 15.433 4.16667 15.221 4.16667 15H2.5C2.5 15.663 2.76339 16.2989 3.23223 16.7678C3.70107 17.2366 4.33696 17.5 5 17.5V15.8333Z" fill="#7E7E7E"/>
<path d="M6.6665 8.33301V16.6663" stroke="#7E7E7E" stroke-width="2"/>
</svg>
