<svg width="16" height="16" viewBox="0 0 16 16" fill="none" xmlns="http://www.w3.org/2000/svg">
<path d="M10.5 6.33333L9.67833 6.19667C9.65849 6.316 9.66487 6.43821 9.69703 6.55483C9.72918 6.67144 9.78633 6.77966 9.86452 6.87196C9.94271 6.96426 10.0401 7.03844 10.1498 7.08933C10.2595 7.14022 10.379 7.16661 10.5 7.16667V6.33333ZM1.33333 6.33333V5.5C1.11232 5.5 0.900358 5.5878 0.744078 5.74408C0.587797 5.90036 0.5 6.11232 0.5 6.33333H1.33333ZM3 15.5H12.4667V13.8333H3V15.5ZM13.4667 5.5H10.5V7.16667H13.4667V5.5ZM11.3225 6.47L11.9933 2.44083L10.35 2.16667L9.67833 6.19667L11.3225 6.47ZM10.35 0.5H10.1717V2.16667H10.35V0.5ZM7.3975 1.98417L5.3025 5.12917L6.68917 6.05417L8.78583 2.90917L7.3975 1.98417ZM4.60833 5.5H1.33333V7.16667H4.60833V5.5ZM0.5 6.33333V13H2.16667V6.33333H0.5ZM14.9183 13.49L15.9183 8.49L14.285 8.16333L13.285 13.1633L14.9183 13.49ZM5.3025 5.12917C5.22638 5.24326 5.12243 5.33681 5.00149 5.4015C4.88054 5.46618 4.74549 5.50002 4.60833 5.5V7.16667C5.01989 7.16664 5.42507 7.065 5.78792 6.87079C6.15077 6.67657 6.46006 6.39578 6.68833 6.05333L5.3025 5.12917ZM11.9933 2.44083C12.0331 2.20211 12.0205 1.95759 11.9562 1.72426C11.892 1.49092 11.7777 1.27438 11.6213 1.08968C11.4649 0.90498 11.2702 0.756555 11.0507 0.654722C10.8311 0.552889 10.592 0.500091 10.35 0.5V2.16667L11.9933 2.44083ZM13.4667 7.16667C13.59 7.16662 13.7118 7.19394 13.8232 7.24665C13.9347 7.29937 14.0331 7.37617 14.1113 7.47151C14.1895 7.56685 14.2456 7.67836 14.2755 7.798C14.3054 7.91763 14.3092 8.04241 14.285 8.16333L15.9183 8.49C15.9908 8.12737 15.9819 7.75319 15.8924 7.3944C15.8028 7.03562 15.6347 6.70117 15.4003 6.41517C15.1659 6.12918 14.8709 5.89875 14.5367 5.74049C14.2025 5.58224 13.8373 5.5001 13.4675 5.5L13.4667 7.16667ZM12.4667 15.5C13.0447 15.5 13.6049 15.2998 14.0518 14.9333C14.4988 14.5668 14.805 14.0568 14.9183 13.49L13.285 13.1633C13.2472 13.3525 13.145 13.5226 12.9957 13.6448C12.8465 13.767 12.6595 13.8336 12.4667 13.8333V15.5ZM10.1717 0.5C9.62295 0.500009 9.08272 0.635479 8.59893 0.894384C8.11513 1.15329 7.7019 1.52763 7.3975 1.98417L8.78583 2.90917C8.93799 2.68082 9.14333 2.49357 9.38523 2.36404C9.62713 2.23452 9.89727 2.16672 10.1717 2.16667V0.5ZM3 13.8333C2.77899 13.8333 2.56702 13.7455 2.41074 13.5893C2.25446 13.433 2.16667 13.221 2.16667 13H0.5C0.5 13.663 0.763392 14.2989 1.23223 14.7678C1.70107 15.2366 2.33696 15.5 3 15.5V13.8333Z" fill="#FF0000"/>
<path d="M4.6665 6.33398V14.6673" stroke="#FF0000" stroke-width="2"/>
</svg>
