<svg width="526" height="679" viewBox="0 0 526 679" fill="none" xmlns="http://www.w3.org/2000/svg">
<path d="M226.907 628.455C337.551 628.455 427.246 622.868 427.246 615.975C427.246 609.082 337.551 603.494 226.907 603.494C116.263 603.494 26.5684 609.082 26.5684 615.975C26.5684 622.868 116.263 628.455 226.907 628.455Z" fill="#01BAF2"/>
<path opacity="0.8" d="M226.907 628.455C337.551 628.455 427.246 622.868 427.246 615.975C427.246 609.082 337.551 603.494 226.907 603.494C116.263 603.494 26.5684 609.082 26.5684 615.975C26.5684 622.868 116.263 628.455 226.907 628.455Z" fill="white"/>
<path d="M377.453 141.385H176.013C162.105 141.385 150.831 152.659 150.831 166.566V591.842C150.831 605.75 162.105 617.024 176.013 617.024H377.453C391.36 617.024 402.635 605.75 402.635 591.842V166.566C402.635 152.659 391.36 141.385 377.453 141.385Z" fill="#263238"/>
<path d="M391.421 193.119H162V564.299H391.421V193.119Z" fill="white" stroke="#263238" stroke-width="1.33739" stroke-miterlimit="10"/>
<path d="M311.895 343.916C331.315 324.496 331.315 293.01 311.895 273.59C292.475 254.17 260.989 254.17 241.568 273.59C222.148 293.01 222.148 324.496 241.568 343.916C260.989 363.336 292.475 363.336 311.895 343.916Z" fill="#01BAF2"/>
<path d="M342.019 541.452H211.458C211.164 541.453 210.873 541.397 210.601 541.286C210.329 541.175 210.082 541.011 209.873 540.803C209.665 540.596 209.5 540.35 209.387 540.079C209.274 539.807 209.216 539.516 209.216 539.223C209.214 538.928 209.271 538.635 209.383 538.363C209.495 538.09 209.66 537.842 209.869 537.633C210.077 537.425 210.325 537.26 210.598 537.148C210.871 537.036 211.163 536.979 211.458 536.981H342.019C342.313 536.981 342.604 537.039 342.875 537.151C343.146 537.264 343.393 537.43 343.6 537.638C343.807 537.846 343.971 538.094 344.082 538.366C344.193 538.638 344.25 538.929 344.248 539.223C344.248 539.814 344.013 540.381 343.595 540.799C343.177 541.217 342.61 541.452 342.019 541.452Z" fill="#01BAF2"/>
<path d="M346.271 386.437H207.195C204.325 386.437 201.998 388.763 201.998 391.634V408.028C201.998 410.898 204.325 413.225 207.195 413.225H346.271C349.141 413.225 351.468 410.898 351.468 408.028V391.634C351.468 388.763 349.141 386.437 346.271 386.437Z" fill="#01BAF2"/>
<path d="M346.271 436.54H207.195C204.325 436.54 201.998 438.867 201.998 441.737V458.132C201.998 461.002 204.325 463.329 207.195 463.329H346.271C349.141 463.329 351.468 461.002 351.468 458.132V441.737C351.468 438.867 349.141 436.54 346.271 436.54Z" fill="#01BAF2"/>
<path d="M301.492 333.558L286.86 325.134V318.174C288.979 315.611 290.514 312.617 291.357 309.4C291.861 309.579 292.391 309.671 292.926 309.673C294.74 309.673 295.894 304.048 296.088 300.03C298.2 295.559 295.323 292.941 295.323 292.941C295.323 292.941 296.516 291.749 297.306 286.966C298.097 282.184 294.52 284.18 291.733 279.799C288.947 275.419 286.951 270.649 277.801 270.649C275.28 270.566 272.792 271.244 270.661 272.594C268.53 273.944 266.854 275.903 265.852 278.218C263.574 278.226 261.305 278.492 259.087 279.009C256.287 279.799 255.497 288.962 257.881 292.552C258.949 294.514 259.518 296.708 259.54 298.941C258.905 298.164 258.244 297.956 257.881 299.719C257.091 303.698 260.279 309.271 260.279 309.271L261.925 308.804C262.754 312.242 264.354 315.446 266.603 318.174V325.134L251.971 333.558C250.263 334.545 248.843 335.963 247.856 337.672C246.869 339.38 246.348 341.318 246.347 343.291V348.112C255.049 354.835 265.735 358.482 276.732 358.482C287.729 358.482 298.415 354.835 307.117 348.112V343.291C307.118 341.318 306.599 339.379 305.611 337.67C304.624 335.961 303.203 334.543 301.492 333.558Z" fill="#263238"/>
<path d="M220.932 456.667C220.596 456.662 220.276 456.527 220.037 456.291C219.91 456.177 219.808 456.037 219.739 455.88C219.669 455.724 219.634 455.555 219.636 455.384C219.64 455.15 219.707 454.921 219.83 454.723L222.163 450.99L217.614 451.133C217.442 451.143 217.271 451.118 217.11 451.057C216.949 450.997 216.803 450.904 216.681 450.783C216.469 450.545 216.353 450.239 216.353 449.921C216.353 449.603 216.469 449.296 216.681 449.059C216.8 448.934 216.946 448.836 217.107 448.774C217.268 448.711 217.441 448.684 217.614 448.696L222.098 448.865L219.791 445.145C219.666 444.943 219.598 444.709 219.597 444.471C219.595 444.3 219.631 444.131 219.7 443.974C219.769 443.818 219.871 443.678 219.998 443.564C220.237 443.328 220.557 443.193 220.893 443.188C221.114 443.189 221.329 443.254 221.515 443.373C221.701 443.492 221.849 443.662 221.942 443.862L224.159 447.867L226.349 443.888C226.453 443.676 226.613 443.496 226.812 443.368C227.01 443.24 227.24 443.169 227.476 443.162C227.64 443.163 227.802 443.198 227.952 443.265C228.101 443.332 228.235 443.429 228.345 443.551C228.583 443.798 228.713 444.128 228.708 444.471C228.707 444.694 228.649 444.912 228.539 445.106L226.193 448.865L230.742 448.696C230.915 448.684 231.088 448.711 231.249 448.774C231.411 448.836 231.556 448.934 231.676 449.059C231.897 449.288 232.018 449.596 232.013 449.914C232.012 450.236 231.892 450.545 231.676 450.783C231.554 450.904 231.407 450.997 231.246 451.057C231.086 451.118 230.914 451.143 230.742 451.133L226.168 450.99L228.448 454.684C228.576 454.89 228.644 455.128 228.643 455.371C228.643 455.714 228.506 456.044 228.263 456.287C228.02 456.53 227.691 456.667 227.347 456.667C227.125 456.664 226.908 456.596 226.724 456.472C226.54 456.347 226.396 456.172 226.31 455.967L224.146 452.079L221.994 455.967C221.899 456.17 221.749 456.343 221.562 456.466C221.374 456.59 221.156 456.659 220.932 456.667Z" fill="#263238"/>
<path d="M241.955 456.667C241.619 456.662 241.298 456.527 241.06 456.291C240.933 456.177 240.831 456.037 240.762 455.88C240.692 455.724 240.657 455.555 240.659 455.384C240.663 455.15 240.73 454.921 240.853 454.723L243.186 450.99L238.65 451.133C238.477 451.141 238.304 451.114 238.141 451.054C237.979 450.993 237.83 450.901 237.704 450.783C237.532 450.605 237.417 450.38 237.375 450.137C237.332 449.893 237.364 449.642 237.466 449.417C237.568 449.192 237.736 449.003 237.947 448.874C238.158 448.746 238.403 448.684 238.65 448.696L243.121 448.865L240.814 445.145C240.689 444.943 240.621 444.709 240.62 444.471C240.618 444.3 240.654 444.131 240.723 443.974C240.792 443.818 240.894 443.678 241.021 443.564C241.26 443.328 241.58 443.193 241.916 443.188C242.137 443.19 242.352 443.254 242.538 443.373C242.724 443.492 242.872 443.662 242.965 443.862L245.182 447.867L247.372 443.888C247.476 443.676 247.636 443.496 247.835 443.368C248.033 443.24 248.263 443.169 248.499 443.162C248.664 443.161 248.826 443.196 248.976 443.263C249.125 443.33 249.259 443.428 249.368 443.551C249.488 443.672 249.583 443.816 249.647 443.974C249.712 444.131 249.745 444.301 249.744 444.471C249.739 444.695 249.676 444.914 249.562 445.106L247.216 448.865L251.778 448.722C251.949 448.711 252.12 448.737 252.279 448.8C252.438 448.863 252.582 448.96 252.699 449.085C252.919 449.314 253.041 449.622 253.036 449.94C253.035 450.262 252.915 450.571 252.699 450.809C252.579 450.929 252.435 451.023 252.276 451.083C252.118 451.143 251.948 451.169 251.778 451.159L247.19 451.016L249.471 454.71C249.599 454.916 249.667 455.154 249.666 455.397C249.666 455.74 249.529 456.07 249.286 456.313C249.043 456.556 248.714 456.693 248.37 456.693C248.148 456.69 247.931 456.622 247.747 456.497C247.563 456.373 247.419 456.198 247.333 455.993L245.169 452.105L243.017 455.993C242.918 456.191 242.767 456.359 242.58 456.478C242.392 456.596 242.176 456.662 241.955 456.667Z" fill="#263238"/>
<path d="M262.989 456.667C262.649 456.665 262.323 456.53 262.082 456.291C261.954 456.177 261.852 456.037 261.783 455.88C261.714 455.724 261.679 455.555 261.68 455.384C261.684 455.15 261.751 454.921 261.874 454.723L264.207 450.99L259.671 451.133C259.427 451.142 259.185 451.079 258.977 450.951C258.769 450.823 258.603 450.636 258.502 450.413C258.4 450.191 258.367 449.943 258.407 449.702C258.447 449.461 258.557 449.237 258.725 449.059C258.847 448.934 258.995 448.837 259.158 448.775C259.322 448.712 259.496 448.685 259.671 448.696L264.142 448.865L261.835 445.145C261.71 444.943 261.643 444.709 261.641 444.471C261.645 444.301 261.683 444.133 261.752 443.978C261.82 443.822 261.919 443.681 262.043 443.564C262.284 443.324 262.61 443.189 262.95 443.188C263.168 443.192 263.382 443.257 263.565 443.376C263.748 443.495 263.894 443.664 263.987 443.862L266.203 447.867L268.393 443.888C268.497 443.676 268.657 443.496 268.856 443.368C269.055 443.24 269.284 443.169 269.521 443.162C269.685 443.161 269.847 443.196 269.997 443.263C270.147 443.33 270.28 443.428 270.389 443.551C270.509 443.672 270.604 443.816 270.669 443.974C270.733 444.131 270.766 444.301 270.765 444.471C270.76 444.695 270.698 444.914 270.583 445.106L268.238 448.865L272.8 448.696C272.967 448.679 273.137 448.699 273.296 448.753C273.456 448.807 273.602 448.895 273.725 449.01C273.848 449.126 273.944 449.266 274.008 449.422C274.072 449.578 274.102 449.746 274.096 449.914C274.098 450.234 273.983 450.543 273.772 450.783C273.65 450.904 273.503 450.997 273.342 451.057C273.182 451.118 273.01 451.143 272.839 451.133L268.264 450.99L270.532 454.684C270.659 454.89 270.727 455.128 270.726 455.371C270.722 455.541 270.684 455.709 270.615 455.864C270.546 456.02 270.447 456.16 270.324 456.278C270.211 456.399 270.075 456.496 269.924 456.563C269.772 456.63 269.609 456.665 269.443 456.667C269.223 456.663 269.008 456.595 268.826 456.47C268.644 456.346 268.503 456.171 268.419 455.967L266.242 452.079L264.09 455.967C263.993 456.177 263.838 456.355 263.642 456.479C263.447 456.603 263.22 456.668 262.989 456.667Z" fill="#263238"/>
<path d="M284.01 456.667C283.67 456.665 283.344 456.53 283.103 456.291C282.859 456.052 282.719 455.725 282.714 455.384C282.71 455.15 282.773 454.921 282.895 454.723L285.228 450.99L280.692 451.133C280.519 451.141 280.346 451.114 280.184 451.054C280.021 450.993 279.872 450.901 279.746 450.783C279.535 450.545 279.418 450.239 279.418 449.921C279.418 449.603 279.535 449.296 279.746 449.059C279.871 448.938 280.02 448.844 280.182 448.781C280.345 448.719 280.518 448.69 280.692 448.696L285.176 448.865L282.882 445.145C282.757 444.943 282.69 444.709 282.688 444.471C282.692 444.301 282.73 444.133 282.799 443.978C282.868 443.822 282.967 443.681 283.09 443.564C283.331 443.324 283.657 443.189 283.997 443.188C284.218 443.19 284.434 443.254 284.62 443.373C284.805 443.492 284.954 443.662 285.047 443.862L287.25 447.867L289.44 443.888C289.544 443.676 289.704 443.496 289.903 443.368C290.102 443.24 290.332 443.169 290.568 443.162C290.732 443.161 290.894 443.196 291.044 443.263C291.194 443.33 291.327 443.428 291.436 443.551C291.556 443.672 291.651 443.816 291.716 443.974C291.78 444.131 291.813 444.301 291.812 444.471C291.807 444.695 291.745 444.914 291.631 445.106L289.285 448.865L293.847 448.696C294.014 448.679 294.184 448.699 294.343 448.753C294.503 448.807 294.649 448.895 294.772 449.01C294.895 449.126 294.991 449.266 295.055 449.422C295.119 449.578 295.149 449.746 295.143 449.914C295.145 450.234 295.03 450.543 294.819 450.783C294.697 450.904 294.55 450.997 294.39 451.057C294.229 451.118 294.057 451.143 293.886 451.133L289.311 450.99L291.579 454.684C291.707 454.89 291.774 455.128 291.773 455.371C291.774 455.542 291.739 455.711 291.67 455.867C291.601 456.024 291.499 456.164 291.371 456.278C291.259 456.399 291.122 456.496 290.971 456.563C290.819 456.63 290.656 456.665 290.49 456.667C290.27 456.663 290.055 456.595 289.873 456.47C289.691 456.346 289.55 456.171 289.466 455.967L287.289 452.079L285.137 455.967C285.039 456.181 284.879 456.361 284.679 456.486C284.478 456.61 284.246 456.673 284.01 456.667Z" fill="#263238"/>
<path d="M305.03 456.667C304.69 456.665 304.365 456.53 304.123 456.291C303.923 456.087 303.795 455.823 303.759 455.54C303.724 455.256 303.784 454.969 303.929 454.723L306.249 450.99L301.713 451.133C301.54 451.141 301.367 451.114 301.204 451.054C301.042 450.993 300.893 450.901 300.767 450.783C300.555 450.545 300.438 450.239 300.438 449.921C300.438 449.603 300.555 449.296 300.767 449.059C300.892 448.938 301.04 448.844 301.203 448.781C301.365 448.719 301.539 448.69 301.713 448.696L306.197 448.865L303.89 445.145C303.764 444.943 303.697 444.709 303.696 444.471C303.7 444.129 303.84 443.803 304.084 443.564C304.326 443.324 304.652 443.19 304.992 443.188C305.212 443.19 305.428 443.254 305.614 443.373C305.8 443.492 305.948 443.662 306.041 443.862L308.245 447.867L310.435 443.888C310.539 443.676 310.699 443.496 310.897 443.368C311.096 443.24 311.326 443.169 311.562 443.162C311.728 443.161 311.893 443.195 312.045 443.262C312.196 443.329 312.332 443.428 312.444 443.551C312.682 443.798 312.812 444.128 312.807 444.471C312.802 444.695 312.739 444.914 312.625 445.106L310.279 448.865L314.841 448.696C315.009 448.679 315.178 448.699 315.338 448.753C315.498 448.807 315.644 448.895 315.767 449.01C315.889 449.126 315.986 449.266 316.05 449.422C316.114 449.578 316.144 449.746 316.137 449.914C316.14 450.234 316.025 450.543 315.813 450.783C315.691 450.904 315.545 450.997 315.384 451.057C315.223 451.118 315.052 451.143 314.88 451.133L310.305 450.99L312.573 454.684C312.701 454.89 312.768 455.128 312.768 455.371C312.769 455.542 312.734 455.711 312.665 455.867C312.595 456.024 312.493 456.164 312.366 456.278C312.253 456.399 312.117 456.496 311.965 456.563C311.814 456.63 311.65 456.665 311.485 456.667C311.264 456.663 311.05 456.595 310.868 456.47C310.686 456.346 310.544 456.171 310.461 455.967L308.283 452.079L306.132 455.967C306.035 456.177 305.88 456.355 305.684 456.479C305.489 456.603 305.262 456.668 305.03 456.667Z" fill="#263238"/>
<path d="M326.052 456.667C325.717 456.662 325.396 456.527 325.158 456.291C325.031 456.177 324.929 456.037 324.86 455.88C324.79 455.724 324.755 455.555 324.756 455.384C324.76 455.15 324.828 454.921 324.951 454.723L327.271 450.99L322.735 451.133C322.568 451.145 322.4 451.123 322.242 451.067C322.085 451.012 321.94 450.924 321.818 450.809C321.696 450.694 321.6 450.556 321.534 450.402C321.469 450.248 321.436 450.082 321.439 449.914C321.438 449.756 321.468 449.599 321.528 449.452C321.588 449.305 321.677 449.172 321.788 449.059C321.908 448.934 322.053 448.836 322.215 448.774C322.376 448.711 322.549 448.684 322.722 448.696L327.206 448.865L324.899 445.145C324.773 444.943 324.706 444.709 324.705 444.471C324.709 444.129 324.849 443.803 325.093 443.564C325.335 443.324 325.661 443.19 326.001 443.188C326.221 443.19 326.437 443.254 326.623 443.373C326.809 443.492 326.957 443.662 327.05 443.862L329.254 447.867L331.457 443.888C331.56 443.678 331.718 443.499 331.914 443.371C332.11 443.243 332.337 443.171 332.571 443.162C332.737 443.161 332.902 443.195 333.054 443.262C333.205 443.329 333.341 443.428 333.453 443.551C333.691 443.798 333.821 444.128 333.816 444.471C333.815 444.694 333.757 444.912 333.647 445.106L331.301 448.865L335.85 448.696C336.023 448.684 336.196 448.711 336.357 448.774C336.519 448.836 336.664 448.934 336.783 449.059C337.004 449.288 337.126 449.596 337.12 449.914C337.12 450.236 336.999 450.545 336.783 450.783C336.661 450.904 336.515 450.997 336.354 451.057C336.194 451.118 336.022 451.143 335.85 451.133L331.275 450.99L333.543 454.684C333.671 454.89 333.739 455.128 333.738 455.371C333.733 455.712 333.593 456.039 333.349 456.278C333.113 456.519 332.792 456.658 332.455 456.667C332.234 456.663 332.02 456.595 331.838 456.47C331.656 456.346 331.514 456.171 331.431 455.967L329.254 452.079L327.102 455.967C327.009 456.169 326.861 456.342 326.676 456.465C326.491 456.589 326.275 456.658 326.052 456.667Z" fill="#263238"/>
<g style="mix-blend-mode:multiply">
<path d="M391.436 194.106H162.015V208.479H391.436V194.106Z" fill="#01BAF2"/>
</g>
<path d="M301.674 167.628H251.777C250.877 167.628 250.013 167.27 249.376 166.634C248.74 165.997 248.382 165.133 248.382 164.232C248.382 163.332 248.74 162.468 249.376 161.831C250.013 161.195 250.877 160.837 251.777 160.837H301.674C302.575 160.837 303.438 161.195 304.075 161.831C304.712 162.468 305.07 163.332 305.07 164.232C305.07 165.133 304.712 165.997 304.075 166.634C303.438 167.27 302.575 167.628 301.674 167.628Z" fill="#01BAF2" stroke="#263238" stroke-width="1.33739" stroke-linecap="round" stroke-linejoin="round"/>
<path d="M290.335 585.764C290.337 583.071 289.541 580.438 288.047 578.199C286.552 575.959 284.427 574.213 281.94 573.181C279.453 572.149 276.716 571.879 274.075 572.403C271.434 572.928 269.008 574.224 267.104 576.128C265.2 578.032 263.904 580.458 263.379 583.099C262.854 585.74 263.125 588.477 264.157 590.964C265.188 593.452 266.934 595.577 269.174 597.071C271.414 598.565 274.047 599.362 276.739 599.359C280.344 599.356 283.8 597.922 286.349 595.373C288.898 592.824 290.331 589.368 290.335 585.764Z" fill="#01BAF2"/>
<path d="M283.633 578.869H269.844V592.659H283.633V578.869Z" fill="#01BAF2" stroke="#263238" stroke-width="1.33739" stroke-linecap="round" stroke-linejoin="round"/>
<path d="M440.996 429.283C440.996 429.283 422.93 383.378 439.013 377.922C455.758 372.233 455.019 402.546 454.371 417.321C453.01 448.892 449.524 454.763 446.919 447.052L440.996 429.283ZM435.566 465.092C440.529 471.572 441.929 464.859 432.974 434.545C428.775 420.289 419.651 391.452 405.654 402.274C392.214 412.642 424.2 450.227 424.2 450.227L435.566 465.092ZM425.975 491.401C430.706 495.601 430.796 490.3 419.56 468.41C414.285 458.159 403.126 437.409 393.989 447.674C385.215 457.575 415.115 481.642 415.115 481.642L425.975 491.401ZM415.607 522.687C420.337 526.899 420.428 521.586 409.192 499.709C403.917 489.457 392.758 468.695 383.621 478.973C374.899 488.9 404.707 512.967 404.707 512.967L415.607 522.687ZM445.545 459.001C437.976 461.956 443.99 465.17 475.6 465.079C490.426 465.079 520.701 464.405 514.247 447.933C508.065 432.109 463.041 452.262 463.041 452.262L445.545 459.001ZM436.927 480.048C428.917 481.435 434.179 485.79 465.18 491.985C479.708 494.901 509.504 500.279 506.458 482.913C503.542 466.168 455.408 476.977 455.408 476.977L436.927 480.048ZM427.284 505.748C420.467 506.733 424.822 510.531 450.885 516.492C463.106 519.292 488.184 524.541 486.007 509.727C483.933 495.471 442.979 503.532 442.979 503.532L427.284 505.748ZM419.962 529.556C413.287 531.254 418.018 534.572 444.586 537.734C457.028 539.212 482.521 541.778 478.801 527.275C475.211 513.356 435.345 525.681 435.345 525.681L419.962 529.556ZM459.024 433.171C455.136 441.881 463.21 440.559 490.66 416.608C503.516 405.372 529.307 381.862 508.882 370.159C489.273 358.909 468.187 413.187 468.187 413.187L459.024 433.171ZM420.973 560.57C416.864 562.968 420.895 563.901 439.739 560.142C448.578 558.393 466.554 554.505 460.475 546.832C454.591 539.445 430.485 554.997 430.485 554.997L420.973 560.57Z" fill="#01BAF2"/>
<path opacity="0.3" d="M440.996 429.283C440.996 429.283 422.93 383.378 439.013 377.922C455.758 372.233 455.019 402.546 454.371 417.321C453.01 448.892 449.524 454.763 446.919 447.052L440.996 429.283ZM435.566 465.092C440.529 471.572 441.929 464.859 432.974 434.545C428.775 420.289 419.651 391.452 405.654 402.274C392.214 412.642 424.2 450.227 424.2 450.227L435.566 465.092ZM425.975 491.401C430.706 495.601 430.796 490.3 419.56 468.41C414.285 458.159 403.126 437.409 393.989 447.674C385.215 457.575 415.115 481.642 415.115 481.642L425.975 491.401ZM415.607 522.687C420.337 526.899 420.428 521.586 409.192 499.709C403.917 489.457 392.758 468.695 383.621 478.973C374.899 488.9 404.707 512.967 404.707 512.967L415.607 522.687ZM445.545 459.001C437.976 461.956 443.99 465.17 475.6 465.079C490.426 465.079 520.701 464.405 514.247 447.933C508.065 432.109 463.041 452.262 463.041 452.262L445.545 459.001ZM436.927 480.048C428.917 481.435 434.179 485.79 465.18 491.985C479.708 494.901 509.504 500.279 506.458 482.913C503.542 466.168 455.408 476.977 455.408 476.977L436.927 480.048ZM427.284 505.748C420.467 506.733 424.822 510.531 450.885 516.492C463.106 519.292 488.184 524.541 486.007 509.727C483.933 495.471 442.979 503.532 442.979 503.532L427.284 505.748ZM419.962 529.556C413.287 531.254 418.018 534.572 444.586 537.734C457.028 539.212 482.521 541.778 478.801 527.275C475.211 513.356 435.345 525.681 435.345 525.681L419.962 529.556ZM459.024 433.171C455.136 441.881 463.21 440.559 490.66 416.608C503.516 405.372 529.307 381.862 508.882 370.159C489.273 358.909 468.187 413.187 468.187 413.187L459.024 433.171ZM420.973 560.57C416.864 562.968 420.895 563.901 439.739 560.142C448.578 558.393 466.554 554.505 460.475 546.832C454.591 539.445 430.485 554.997 430.485 554.997L420.973 560.57Z" fill="white"/>
<path d="M448.966 450.654L445.816 398.256L448.966 450.654ZM438.999 467.943L419.093 422.88L438.999 467.943ZM490.374 454.84L442.667 461.683L490.374 454.84ZM428.683 492.23L402.853 459.091L428.683 492.23ZM433.219 482.07L468.808 483.858L433.219 482.07ZM424.795 507.485L452.011 510.18L424.795 507.485ZM418.224 523.633L404.707 503.298L418.224 523.633ZM416.669 530.813L448.668 531.111L416.669 530.813ZM410.189 590.845C410.403 590.828 410.602 590.727 410.743 590.565C410.884 590.402 410.955 590.191 410.941 589.976C408.906 559.416 420.725 509.364 439.686 468.28C451.804 442.023 499.303 390.415 499.809 389.897C499.961 389.744 500.047 389.536 500.047 389.32C500.047 389.104 499.961 388.896 499.809 388.743C499.734 388.668 499.645 388.608 499.547 388.568C499.449 388.527 499.344 388.506 499.238 388.506C499.132 388.506 499.027 388.527 498.93 388.568C498.832 388.608 498.743 388.668 498.668 388.743C498.189 389.262 450.495 441.064 438.274 467.554C418.963 509.636 407.299 558.781 409.372 590.08C409.389 590.286 409.481 590.479 409.632 590.621C409.783 590.762 409.982 590.842 410.189 590.845ZM448.953 451.458C449.167 451.444 449.368 451.347 449.511 451.187C449.654 451.027 449.728 450.817 449.717 450.602L446.62 398.178C446.615 398.072 446.589 397.967 446.543 397.87C446.497 397.774 446.432 397.688 446.353 397.616C446.273 397.545 446.18 397.491 446.079 397.456C445.978 397.421 445.871 397.407 445.765 397.414C445.55 397.427 445.35 397.524 445.207 397.684C445.064 397.844 444.989 398.055 445 398.269L448.149 450.667C448.159 450.873 448.248 451.068 448.398 451.21C448.548 451.353 448.746 451.432 448.953 451.432V451.458ZM439.284 468.682C439.479 468.594 439.631 468.433 439.708 468.235C439.786 468.036 439.782 467.815 439.699 467.619L419.779 422.556C419.693 422.361 419.533 422.207 419.334 422.129C419.135 422.051 418.913 422.056 418.717 422.142C418.521 422.228 418.367 422.388 418.289 422.587C418.211 422.787 418.216 423.009 418.302 423.204L438.209 468.267C438.271 468.412 438.374 468.535 438.505 468.622C438.636 468.71 438.79 468.757 438.948 468.76C439.082 468.766 439.215 468.74 439.336 468.682H439.284ZM442.732 462.461L490.412 455.644C490.528 455.641 490.641 455.615 490.745 455.565C490.849 455.516 490.942 455.445 491.016 455.358C491.091 455.27 491.147 455.168 491.179 455.057C491.211 454.947 491.22 454.831 491.204 454.717C491.189 454.603 491.149 454.493 491.088 454.395C491.027 454.298 490.946 454.214 490.851 454.15C490.755 454.085 490.647 454.042 490.534 454.023C490.42 454.003 490.304 454.008 490.192 454.037L442.512 460.854C442.298 460.868 442.1 460.965 441.959 461.126C441.818 461.286 441.746 461.496 441.76 461.709C441.774 461.922 441.871 462.121 442.032 462.262C442.192 462.403 442.402 462.475 442.615 462.461H442.732ZM429.137 492.878C429.306 492.746 429.416 492.551 429.443 492.338C429.469 492.124 429.411 491.908 429.279 491.738L403.437 458.534C403.304 458.362 403.109 458.25 402.894 458.222C402.679 458.194 402.461 458.253 402.29 458.385C402.118 458.517 402.005 458.712 401.978 458.928C401.95 459.143 402.008 459.36 402.141 459.532L428.035 492.788C428.11 492.885 428.206 492.963 428.317 493.017C428.427 493.071 428.548 493.099 428.67 493.099C428.864 493.089 429.047 493.011 429.189 492.878H429.137ZM469.521 483.897C469.528 483.683 469.45 483.474 469.305 483.316C469.159 483.159 468.957 483.065 468.743 483.055L433.219 481.253C433.019 481.267 432.832 481.353 432.692 481.496C432.552 481.639 432.469 481.829 432.46 482.029C432.45 482.228 432.514 482.425 432.64 482.581C432.765 482.736 432.944 482.84 433.141 482.873L468.73 484.675C468.944 484.682 469.153 484.604 469.311 484.459C469.468 484.313 469.562 484.111 469.572 483.897H469.521ZM452.763 510.258C452.776 510.151 452.767 510.043 452.737 509.94C452.707 509.837 452.657 509.741 452.589 509.658C452.521 509.574 452.438 509.505 452.343 509.455C452.248 509.404 452.144 509.373 452.037 509.364L424.821 506.681C424.715 506.67 424.609 506.681 424.507 506.711C424.405 506.742 424.311 506.793 424.229 506.86C424.147 506.928 424.079 507.011 424.03 507.105C423.98 507.198 423.949 507.301 423.94 507.407C423.921 507.619 423.987 507.831 424.123 507.995C424.259 508.16 424.453 508.265 424.665 508.288L451.882 510.984H451.96C452.169 510.998 452.375 510.931 452.535 510.795C452.695 510.659 452.795 510.467 452.815 510.258H452.763ZM418.613 524.307C418.793 524.188 418.918 524.003 418.962 523.791C419.006 523.58 418.964 523.36 418.846 523.179L405.394 502.845C405.27 502.67 405.084 502.549 404.874 502.508C404.664 502.467 404.446 502.509 404.266 502.625C404.086 502.744 403.961 502.929 403.917 503.14C403.873 503.351 403.915 503.571 404.033 503.752L417.485 524.087C417.562 524.198 417.665 524.289 417.785 524.352C417.904 524.415 418.037 524.449 418.172 524.449C418.348 524.459 418.521 524.409 418.665 524.307H418.613ZM449.484 531.111C449.481 530.898 449.396 530.694 449.246 530.542C449.096 530.39 448.894 530.301 448.681 530.295L416.682 529.996C416.469 529.996 416.264 530.081 416.114 530.232C415.963 530.383 415.878 530.587 415.878 530.8C415.875 530.907 415.893 531.014 415.932 531.114C415.971 531.213 416.03 531.304 416.105 531.381C416.18 531.457 416.27 531.517 416.369 531.558C416.468 531.598 416.575 531.618 416.682 531.616L448.681 531.915C448.79 531.92 448.899 531.903 449.002 531.865C449.105 531.827 449.199 531.769 449.279 531.694C449.358 531.619 449.422 531.529 449.467 531.429C449.511 531.329 449.534 531.221 449.536 531.111H449.484ZM406.547 578.96C406.612 578.818 412.068 563.784 428.476 560.194C428.687 560.147 428.871 560.019 428.988 559.836C429.105 559.654 429.144 559.433 429.098 559.222C429.045 559.015 428.915 558.835 428.734 558.722C428.553 558.609 428.335 558.569 428.126 558.613C410.824 562.397 405.083 578.273 405.018 578.429C404.951 578.633 404.966 578.856 405.061 579.049C405.155 579.243 405.321 579.392 405.523 579.466H405.782C405.955 579.48 406.127 579.439 406.274 579.348C406.422 579.257 406.535 579.121 406.599 578.96H406.547ZM410.189 590.845C410.403 590.828 410.602 590.727 410.743 590.565C410.884 590.402 410.955 590.191 410.941 589.976C408.906 559.416 420.725 509.364 439.686 468.28C451.804 442.023 499.303 390.415 499.809 389.897C499.961 389.744 500.047 389.536 500.047 389.32C500.047 389.104 499.961 388.896 499.809 388.743C499.734 388.668 499.645 388.608 499.547 388.568C499.449 388.527 499.344 388.506 499.238 388.506C499.132 388.506 499.027 388.527 498.93 388.568C498.832 388.608 498.743 388.668 498.668 388.743C498.189 389.262 450.495 441.064 438.274 467.554C418.963 509.636 407.299 558.781 409.372 590.08C409.389 590.286 409.481 590.479 409.632 590.621C409.783 590.762 409.982 590.842 410.189 590.845ZM448.953 451.458C449.167 451.444 449.368 451.347 449.511 451.187C449.654 451.027 449.728 450.817 449.717 450.602L446.62 398.178C446.615 398.072 446.589 397.967 446.543 397.87C446.497 397.774 446.432 397.688 446.353 397.616C446.273 397.545 446.18 397.491 446.079 397.456C445.978 397.421 445.871 397.407 445.765 397.414C445.55 397.427 445.35 397.524 445.207 397.684C445.064 397.844 444.989 398.055 445 398.269L448.149 450.667C448.159 450.873 448.248 451.068 448.398 451.21C448.548 451.353 448.746 451.432 448.953 451.432V451.458ZM439.284 468.682C439.479 468.594 439.631 468.433 439.708 468.235C439.786 468.036 439.782 467.815 439.699 467.619L419.779 422.556C419.693 422.361 419.533 422.207 419.334 422.129C419.135 422.051 418.913 422.056 418.717 422.142C418.521 422.228 418.367 422.388 418.289 422.587C418.211 422.787 418.216 423.009 418.302 423.204L438.209 468.267C438.271 468.412 438.374 468.535 438.505 468.622C438.636 468.71 438.79 468.757 438.948 468.76C439.082 468.766 439.215 468.74 439.336 468.682H439.284ZM442.732 462.461L490.412 455.644C490.528 455.641 490.641 455.615 490.745 455.565C490.849 455.516 490.942 455.445 491.016 455.358C491.091 455.27 491.147 455.168 491.179 455.057C491.211 454.947 491.22 454.831 491.204 454.717C491.189 454.603 491.149 454.493 491.088 454.395C491.027 454.298 490.946 454.214 490.851 454.15C490.755 454.085 490.647 454.042 490.534 454.023C490.42 454.003 490.304 454.008 490.192 454.037L442.512 460.854C442.298 460.868 442.1 460.965 441.959 461.126C441.818 461.286 441.746 461.496 441.76 461.709C441.774 461.922 441.871 462.121 442.032 462.262C442.192 462.403 442.402 462.475 442.615 462.461H442.732ZM429.137 492.878C429.306 492.746 429.416 492.551 429.443 492.338C429.469 492.124 429.411 491.908 429.279 491.738L403.437 458.534C403.371 458.449 403.289 458.377 403.196 458.324C403.103 458.27 403 458.236 402.894 458.222C402.787 458.208 402.679 458.215 402.576 458.243C402.472 458.271 402.375 458.319 402.29 458.385C402.205 458.45 402.133 458.532 402.08 458.625C402.026 458.718 401.991 458.821 401.978 458.928C401.964 459.034 401.971 459.142 401.999 459.246C402.027 459.35 402.075 459.447 402.141 459.532L428.035 492.788C428.11 492.885 428.206 492.963 428.317 493.017C428.427 493.071 428.548 493.099 428.67 493.099C428.864 493.089 429.047 493.011 429.189 492.878H429.137ZM469.521 483.897C469.528 483.683 469.45 483.474 469.305 483.316C469.159 483.159 468.957 483.065 468.743 483.055L433.219 481.253C433.019 481.267 432.832 481.353 432.692 481.496C432.552 481.639 432.469 481.829 432.46 482.029C432.45 482.228 432.514 482.425 432.64 482.581C432.765 482.736 432.944 482.84 433.141 482.873L468.73 484.675C468.944 484.682 469.153 484.604 469.311 484.459C469.468 484.313 469.562 484.111 469.572 483.897H469.521ZM452.763 510.258C452.776 510.151 452.767 510.043 452.737 509.94C452.707 509.837 452.657 509.741 452.589 509.658C452.521 509.574 452.438 509.505 452.343 509.455C452.248 509.404 452.144 509.373 452.037 509.364L424.821 506.681C424.715 506.67 424.609 506.681 424.507 506.711C424.405 506.742 424.311 506.793 424.229 506.86C424.147 506.928 424.079 507.011 424.03 507.105C423.98 507.198 423.949 507.301 423.94 507.407C423.921 507.619 423.987 507.831 424.123 507.995C424.259 508.16 424.453 508.265 424.665 508.288L451.882 510.984H451.96C452.169 510.998 452.375 510.931 452.535 510.795C452.695 510.659 452.795 510.467 452.815 510.258H452.763ZM418.613 524.307C418.793 524.188 418.918 524.003 418.962 523.791C419.006 523.58 418.964 523.36 418.846 523.179L405.394 502.845C405.27 502.67 405.084 502.549 404.874 502.508C404.664 502.467 404.446 502.509 404.266 502.625C404.086 502.744 403.961 502.929 403.917 503.14C403.873 503.351 403.915 503.571 404.033 503.752L417.485 524.087C417.562 524.198 417.665 524.289 417.785 524.352C417.904 524.415 418.037 524.449 418.172 524.449C418.348 524.459 418.521 524.409 418.665 524.307H418.613ZM449.484 531.111C449.481 530.898 449.396 530.694 449.246 530.542C449.096 530.39 448.894 530.301 448.681 530.295L416.682 529.996C416.469 529.996 416.264 530.081 416.114 530.232C415.963 530.383 415.878 530.587 415.878 530.8C415.875 530.907 415.893 531.014 415.932 531.114C415.971 531.213 416.03 531.304 416.105 531.381C416.18 531.457 416.27 531.517 416.369 531.558C416.468 531.598 416.575 531.618 416.682 531.616L448.681 531.915C448.79 531.92 448.899 531.903 449.002 531.865C449.105 531.827 449.199 531.769 449.279 531.694C449.358 531.619 449.422 531.529 449.467 531.429C449.511 531.329 449.534 531.221 449.536 531.111H449.484ZM406.547 578.96C406.612 578.818 412.068 563.784 428.476 560.194C428.687 560.147 428.871 560.019 428.988 559.836C429.105 559.654 429.144 559.433 429.098 559.222C429.045 559.015 428.915 558.835 428.734 558.722C428.553 558.609 428.335 558.569 428.126 558.613C410.824 562.397 405.083 578.273 405.018 578.429C404.951 578.633 404.966 578.856 405.061 579.049C405.155 579.243 405.321 579.392 405.523 579.466H405.782C405.955 579.48 406.127 579.439 406.274 579.348C406.422 579.257 406.535 579.121 406.599 578.96H406.547Z" fill="#01BAF2"/>
<path opacity="0.2" d="M448.966 450.654L445.816 398.256L448.966 450.654ZM438.999 467.943L419.093 422.88L438.999 467.943ZM490.374 454.84L442.667 461.683L490.374 454.84ZM428.683 492.23L402.853 459.091L428.683 492.23ZM433.219 482.07L468.808 483.858L433.219 482.07ZM424.795 507.485L452.011 510.18L424.795 507.485ZM418.224 523.633L404.707 503.298L418.224 523.633ZM416.669 530.813L448.668 531.111L416.669 530.813ZM410.189 590.845C410.403 590.828 410.602 590.727 410.743 590.565C410.884 590.402 410.955 590.191 410.941 589.976C408.906 559.416 420.725 509.364 439.686 468.28C451.804 442.023 499.303 390.415 499.809 389.897C499.961 389.744 500.047 389.536 500.047 389.32C500.047 389.104 499.961 388.896 499.809 388.743C499.734 388.668 499.645 388.608 499.547 388.568C499.449 388.527 499.344 388.506 499.238 388.506C499.132 388.506 499.027 388.527 498.93 388.568C498.832 388.608 498.743 388.668 498.668 388.743C498.189 389.262 450.495 441.064 438.274 467.554C418.963 509.636 407.299 558.781 409.372 590.08C409.389 590.286 409.481 590.479 409.632 590.621C409.783 590.762 409.982 590.842 410.189 590.845ZM448.953 451.458C449.167 451.444 449.368 451.347 449.511 451.187C449.654 451.027 449.728 450.817 449.717 450.602L446.62 398.178C446.615 398.072 446.589 397.967 446.543 397.87C446.497 397.774 446.432 397.688 446.353 397.616C446.273 397.545 446.18 397.491 446.079 397.456C445.978 397.421 445.871 397.407 445.765 397.414C445.55 397.427 445.35 397.524 445.207 397.684C445.064 397.844 444.989 398.055 445 398.269L448.149 450.667C448.159 450.873 448.248 451.068 448.398 451.21C448.548 451.353 448.746 451.432 448.953 451.432V451.458ZM439.284 468.682C439.479 468.594 439.631 468.433 439.708 468.235C439.786 468.036 439.782 467.815 439.699 467.619L419.779 422.556C419.693 422.361 419.533 422.207 419.334 422.129C419.135 422.051 418.913 422.056 418.717 422.142C418.521 422.228 418.367 422.388 418.289 422.587C418.211 422.787 418.216 423.009 418.302 423.204L438.209 468.267C438.271 468.412 438.374 468.535 438.505 468.622C438.636 468.71 438.79 468.757 438.948 468.76C439.082 468.766 439.215 468.74 439.336 468.682H439.284ZM442.732 462.461L490.412 455.644C490.528 455.641 490.641 455.615 490.745 455.565C490.849 455.516 490.942 455.445 491.016 455.358C491.091 455.27 491.147 455.168 491.179 455.057C491.211 454.947 491.22 454.831 491.204 454.717C491.189 454.603 491.149 454.493 491.088 454.395C491.027 454.298 490.946 454.214 490.851 454.15C490.755 454.085 490.647 454.042 490.534 454.023C490.42 454.003 490.304 454.008 490.192 454.037L442.512 460.854C442.298 460.868 442.1 460.965 441.959 461.126C441.818 461.286 441.746 461.496 441.76 461.709C441.774 461.922 441.871 462.121 442.032 462.262C442.192 462.403 442.402 462.475 442.615 462.461H442.732ZM429.137 492.878C429.306 492.746 429.416 492.551 429.443 492.338C429.469 492.124 429.411 491.908 429.279 491.738L403.437 458.534C403.304 458.362 403.109 458.25 402.894 458.222C402.679 458.194 402.461 458.253 402.29 458.385C402.118 458.517 402.005 458.712 401.978 458.928C401.95 459.143 402.008 459.36 402.141 459.532L428.035 492.788C428.11 492.885 428.206 492.963 428.317 493.017C428.427 493.071 428.548 493.099 428.67 493.099C428.864 493.089 429.047 493.011 429.189 492.878H429.137ZM469.521 483.897C469.528 483.683 469.45 483.474 469.305 483.316C469.159 483.159 468.957 483.065 468.743 483.055L433.219 481.253C433.019 481.267 432.832 481.353 432.692 481.496C432.552 481.639 432.469 481.829 432.46 482.029C432.45 482.228 432.514 482.425 432.64 482.581C432.765 482.736 432.944 482.84 433.141 482.873L468.73 484.675C468.944 484.682 469.153 484.604 469.311 484.459C469.468 484.313 469.562 484.111 469.572 483.897H469.521ZM452.763 510.258C452.776 510.151 452.767 510.043 452.737 509.94C452.707 509.837 452.657 509.741 452.589 509.658C452.521 509.574 452.438 509.505 452.343 509.455C452.248 509.404 452.144 509.373 452.037 509.364L424.821 506.681C424.715 506.67 424.609 506.681 424.507 506.711C424.405 506.742 424.311 506.793 424.229 506.86C424.147 506.928 424.079 507.011 424.03 507.105C423.98 507.198 423.949 507.301 423.94 507.407C423.921 507.619 423.987 507.831 424.123 507.995C424.259 508.16 424.453 508.265 424.665 508.288L451.882 510.984H451.96C452.169 510.998 452.375 510.931 452.535 510.795C452.695 510.659 452.795 510.467 452.815 510.258H452.763ZM418.613 524.307C418.793 524.188 418.918 524.003 418.962 523.791C419.006 523.58 418.964 523.36 418.846 523.179L405.394 502.845C405.27 502.67 405.084 502.549 404.874 502.508C404.664 502.467 404.446 502.509 404.266 502.625C404.086 502.744 403.961 502.929 403.917 503.14C403.873 503.351 403.915 503.571 404.033 503.752L417.485 524.087C417.562 524.198 417.665 524.289 417.785 524.352C417.904 524.415 418.037 524.449 418.172 524.449C418.348 524.459 418.521 524.409 418.665 524.307H418.613ZM449.484 531.111C449.481 530.898 449.396 530.694 449.246 530.542C449.096 530.39 448.894 530.301 448.681 530.295L416.682 529.996C416.469 529.996 416.264 530.081 416.114 530.232C415.963 530.383 415.878 530.587 415.878 530.8C415.875 530.907 415.893 531.014 415.932 531.114C415.971 531.213 416.03 531.304 416.105 531.381C416.18 531.457 416.27 531.517 416.369 531.558C416.468 531.598 416.575 531.618 416.682 531.616L448.681 531.915C448.79 531.92 448.899 531.903 449.002 531.865C449.105 531.827 449.199 531.769 449.279 531.694C449.358 531.619 449.422 531.529 449.467 531.429C449.511 531.329 449.534 531.221 449.536 531.111H449.484ZM406.547 578.96C406.612 578.818 412.068 563.784 428.476 560.194C428.687 560.147 428.871 560.019 428.988 559.836C429.105 559.654 429.144 559.433 429.098 559.222C429.045 559.015 428.915 558.835 428.734 558.722C428.553 558.609 428.335 558.569 428.126 558.613C410.824 562.397 405.083 578.273 405.018 578.429C404.951 578.633 404.966 578.856 405.061 579.049C405.155 579.243 405.321 579.392 405.523 579.466H405.782C405.955 579.48 406.127 579.439 406.274 579.348C406.422 579.257 406.535 579.121 406.599 578.96H406.547ZM410.189 590.845C410.403 590.828 410.602 590.727 410.743 590.565C410.884 590.402 410.955 590.191 410.941 589.976C408.906 559.416 420.725 509.364 439.686 468.28C451.804 442.023 499.303 390.415 499.809 389.897C499.961 389.744 500.047 389.536 500.047 389.32C500.047 389.104 499.961 388.896 499.809 388.743C499.734 388.668 499.645 388.608 499.547 388.568C499.449 388.527 499.344 388.506 499.238 388.506C499.132 388.506 499.027 388.527 498.93 388.568C498.832 388.608 498.743 388.668 498.668 388.743C498.189 389.262 450.495 441.064 438.274 467.554C418.963 509.636 407.299 558.781 409.372 590.08C409.389 590.286 409.481 590.479 409.632 590.621C409.783 590.762 409.982 590.842 410.189 590.845ZM448.953 451.458C449.167 451.444 449.368 451.347 449.511 451.187C449.654 451.027 449.728 450.817 449.717 450.602L446.62 398.178C446.615 398.072 446.589 397.967 446.543 397.87C446.497 397.774 446.432 397.688 446.353 397.616C446.273 397.545 446.18 397.491 446.079 397.456C445.978 397.421 445.871 397.407 445.765 397.414C445.55 397.427 445.35 397.524 445.207 397.684C445.064 397.844 444.989 398.055 445 398.269L448.149 450.667C448.159 450.873 448.248 451.068 448.398 451.21C448.548 451.353 448.746 451.432 448.953 451.432V451.458ZM439.284 468.682C439.479 468.594 439.631 468.433 439.708 468.235C439.786 468.036 439.782 467.815 439.699 467.619L419.779 422.556C419.693 422.361 419.533 422.207 419.334 422.129C419.135 422.051 418.913 422.056 418.717 422.142C418.521 422.228 418.367 422.388 418.289 422.587C418.211 422.787 418.216 423.009 418.302 423.204L438.209 468.267C438.271 468.412 438.374 468.535 438.505 468.622C438.636 468.71 438.79 468.757 438.948 468.76C439.082 468.766 439.215 468.74 439.336 468.682H439.284ZM442.732 462.461L490.412 455.644C490.528 455.641 490.641 455.615 490.745 455.565C490.849 455.516 490.942 455.445 491.016 455.358C491.091 455.27 491.147 455.168 491.179 455.057C491.211 454.947 491.22 454.831 491.204 454.717C491.189 454.603 491.149 454.493 491.088 454.395C491.027 454.298 490.946 454.214 490.851 454.15C490.755 454.085 490.647 454.042 490.534 454.023C490.42 454.003 490.304 454.008 490.192 454.037L442.512 460.854C442.298 460.868 442.1 460.965 441.959 461.126C441.818 461.286 441.746 461.496 441.76 461.709C441.774 461.922 441.871 462.121 442.032 462.262C442.192 462.403 442.402 462.475 442.615 462.461H442.732ZM429.137 492.878C429.306 492.746 429.416 492.551 429.443 492.338C429.469 492.124 429.411 491.908 429.279 491.738L403.437 458.534C403.371 458.449 403.289 458.377 403.196 458.324C403.103 458.27 403 458.236 402.894 458.222C402.787 458.208 402.679 458.215 402.576 458.243C402.472 458.271 402.375 458.319 402.29 458.385C402.205 458.45 402.133 458.532 402.08 458.625C402.026 458.718 401.991 458.821 401.978 458.928C401.964 459.034 401.971 459.142 401.999 459.246C402.027 459.35 402.075 459.447 402.141 459.532L428.035 492.788C428.11 492.885 428.206 492.963 428.317 493.017C428.427 493.071 428.548 493.099 428.67 493.099C428.864 493.089 429.047 493.011 429.189 492.878H429.137ZM469.521 483.897C469.528 483.683 469.45 483.474 469.305 483.316C469.159 483.159 468.957 483.065 468.743 483.055L433.219 481.253C433.019 481.267 432.832 481.353 432.692 481.496C432.552 481.639 432.469 481.829 432.46 482.029C432.45 482.228 432.514 482.425 432.64 482.581C432.765 482.736 432.944 482.84 433.141 482.873L468.73 484.675C468.944 484.682 469.153 484.604 469.311 484.459C469.468 484.313 469.562 484.111 469.572 483.897H469.521ZM452.763 510.258C452.776 510.151 452.767 510.043 452.737 509.94C452.707 509.837 452.657 509.741 452.589 509.658C452.521 509.574 452.438 509.505 452.343 509.455C452.248 509.404 452.144 509.373 452.037 509.364L424.821 506.681C424.715 506.67 424.609 506.681 424.507 506.711C424.405 506.742 424.311 506.793 424.229 506.86C424.147 506.928 424.079 507.011 424.03 507.105C423.98 507.198 423.949 507.301 423.94 507.407C423.921 507.619 423.987 507.831 424.123 507.995C424.259 508.16 424.453 508.265 424.665 508.288L451.882 510.984H451.96C452.169 510.998 452.375 510.931 452.535 510.795C452.695 510.659 452.795 510.467 452.815 510.258H452.763ZM418.613 524.307C418.793 524.188 418.918 524.003 418.962 523.791C419.006 523.58 418.964 523.36 418.846 523.179L405.394 502.845C405.27 502.67 405.084 502.549 404.874 502.508C404.664 502.467 404.446 502.509 404.266 502.625C404.086 502.744 403.961 502.929 403.917 503.14C403.873 503.351 403.915 503.571 404.033 503.752L417.485 524.087C417.562 524.198 417.665 524.289 417.785 524.352C417.904 524.415 418.037 524.449 418.172 524.449C418.348 524.459 418.521 524.409 418.665 524.307H418.613ZM449.484 531.111C449.481 530.898 449.396 530.694 449.246 530.542C449.096 530.39 448.894 530.301 448.681 530.295L416.682 529.996C416.469 529.996 416.264 530.081 416.114 530.232C415.963 530.383 415.878 530.587 415.878 530.8C415.875 530.907 415.893 531.014 415.932 531.114C415.971 531.213 416.03 531.304 416.105 531.381C416.18 531.457 416.27 531.517 416.369 531.558C416.468 531.598 416.575 531.618 416.682 531.616L448.681 531.915C448.79 531.92 448.899 531.903 449.002 531.865C449.105 531.827 449.199 531.769 449.279 531.694C449.358 531.619 449.422 531.529 449.467 531.429C449.511 531.329 449.534 531.221 449.536 531.111H449.484ZM406.547 578.96C406.612 578.818 412.068 563.784 428.476 560.194C428.687 560.147 428.871 560.019 428.988 559.836C429.105 559.654 429.144 559.433 429.098 559.222C429.045 559.015 428.915 558.835 428.734 558.722C428.553 558.609 428.335 558.569 428.126 558.613C410.824 562.397 405.083 578.273 405.018 578.429C404.951 578.633 404.966 578.856 405.061 579.049C405.155 579.243 405.321 579.392 405.523 579.466H405.782C405.955 579.48 406.127 579.439 406.274 579.348C406.422 579.257 406.535 579.121 406.599 578.96H406.547Z" fill="black"/>
<path d="M431.353 567.996H394.663V575.591H397.864L404.487 617.024H421.53L428.152 575.591H431.353V567.996Z" fill="#01BAF2"/>
<path opacity="0.3" d="M431.353 567.996H394.663V575.591H397.864L404.487 617.024H421.53L428.152 575.591H431.353V567.996Z" fill="white"/>
<path d="M101.025 338.342L58.3469 324.41L54.5496 314.379L45.8792 314.107L30.1455 311.126L32.0377 314.379L51.8409 328.752L56.7269 331.188L101.362 354.504L101.025 338.342Z" fill="white" stroke="#263238" stroke-width="1.00396" stroke-miterlimit="10"/>
<path d="M54.55 314.379L50.4805 311.942L42.3545 314.923L43.7023 316.543L54.55 314.379Z" fill="white" stroke="#263238" stroke-width="1.00396" stroke-linejoin="round"/>
<path d="M101.025 338.342L58.3469 324.41L54.5496 314.379L45.8792 314.107L30.1455 311.126L32.0377 314.379L51.8409 328.752L56.7269 331.188L101.362 354.504L101.025 338.342Z" fill="white"/>
<mask id="mask0_846_641" style="mask-type:luminance" maskUnits="userSpaceOnUse" x="30" y="311" width="72" height="44">
<path d="M101.025 338.342L58.3469 324.41L54.5496 314.379L45.8792 314.107L30.1455 311.126L32.0377 314.379L51.8409 328.752L56.7269 331.188L101.362 354.504L101.025 338.342Z" fill="white"/>
</mask>
<g mask="url(#mask0_846_641)">
<path opacity="0.5" d="M101.025 338.342L58.3469 324.41L54.5496 314.379L45.8792 314.107L30.1455 311.126L32.0377 314.379L51.8409 328.752L56.7269 331.188L101.362 354.504L101.025 338.342Z" fill="#01BAF2" stroke="#263238" stroke-width="1.00396" stroke-miterlimit="10"/>
</g>
<path d="M101.025 338.342L58.3469 324.41L54.5496 314.379L45.8792 314.107L30.1455 311.126L32.0377 314.379L51.8409 328.752L56.7269 331.188L101.362 354.504L101.025 338.342Z" stroke="#263238" stroke-width="1.00396" stroke-miterlimit="10"/>
<path d="M54.55 314.379L50.4805 311.942L42.3545 314.923L43.7023 316.543L54.55 314.379Z" fill="white"/>
<mask id="mask1_846_641" style="mask-type:luminance" maskUnits="userSpaceOnUse" x="42" y="311" width="13" height="6">
<path d="M54.55 314.379L50.4805 311.942L42.3545 314.923L43.7023 316.543L54.55 314.379Z" fill="white"/>
</mask>
<g mask="url(#mask1_846_641)">
<path opacity="0.5" d="M54.55 314.379L50.4805 311.942L42.3545 314.923L43.7023 316.543L54.55 314.379Z" fill="#01BAF2" stroke="#263238" stroke-width="1.00396" stroke-linejoin="round"/>
</g>
<path d="M54.55 314.379L50.4805 311.942L42.3545 314.923L43.7023 316.543L54.55 314.379Z" stroke="#263238" stroke-width="1.00396" stroke-linejoin="round"/>
<path d="M110.085 247.919C110.085 247.919 109.424 253.751 111.07 257.496C112.716 261.242 121.853 273.93 121.853 273.93L104.798 287.603C104.798 287.603 97.7213 273.347 96.3734 271.04C95.0256 268.733 93.4056 258.805 97.7991 251.69C102.193 244.575 108.517 242.657 110.085 247.919Z" fill="white"/>
<mask id="mask2_846_641" style="mask-type:luminance" maskUnits="userSpaceOnUse" x="94" y="244" width="28" height="44">
<path d="M110.085 247.919C110.085 247.919 109.424 253.751 111.07 257.496C112.716 261.242 121.853 273.93 121.853 273.93L104.798 287.603C104.798 287.603 97.7213 273.347 96.3734 271.04C95.0256 268.733 93.4056 258.805 97.7991 251.69C102.193 244.575 108.517 242.657 110.085 247.919Z" fill="white"/>
</mask>
<g mask="url(#mask2_846_641)">
<g style="mix-blend-mode:multiply" opacity="0.5">
<path d="M101.323 266.66L108.723 282.005L104.783 287.617L97.3438 274.333L101.323 266.66Z" fill="#01BAF2"/>
</g>
</g>
<path d="M110.085 247.919C110.085 247.919 109.424 253.751 111.07 257.496C112.716 261.242 121.853 273.93 121.853 273.93L104.798 287.603C104.798 287.603 97.7213 273.347 96.3734 271.04C95.0256 268.733 93.4056 258.805 97.7991 251.69C102.193 244.575 108.517 242.657 110.085 247.919Z" stroke="#263238" stroke-width="1.00396" stroke-miterlimit="10"/>
<path d="M115.372 237.241C114.322 230.76 106.896 217.58 95.1152 218.085C87.4687 218.422 83.8916 219.965 80.5738 221.844C77.8694 223.437 75.3485 225.324 73.0569 227.469C67.3026 234.376 65.2808 236.269 66.3954 241.556C66.3039 243.665 66.6344 245.772 67.3674 247.751C69.13 252.456 70.3353 255.527 71.8646 257.77C71.398 259.96 70.1797 265.74 70.1149 267.062C70.0501 268.384 74.003 267.464 75.9989 266.958C79.7055 275.253 86.4966 281.007 88.6091 281.668C92.2898 282.822 98.109 276.769 101.193 272.078C104.278 267.386 101.945 262.111 101.958 260.012C101.971 257.912 108.892 253.298 111.458 251.834C114.024 250.369 116.409 243.708 115.372 237.241Z" fill="white"/>
<mask id="mask3_846_641" style="mask-type:luminance" maskUnits="userSpaceOnUse" x="66" y="218" width="50" height="64">
<path d="M115.372 237.241C114.322 230.76 106.896 217.58 95.1152 218.085C87.4687 218.422 83.8916 219.965 80.5738 221.844C77.8694 223.437 75.3485 225.324 73.0569 227.469C67.3026 234.376 65.2808 236.269 66.3954 241.556C66.3039 243.665 66.6344 245.772 67.3674 247.751C69.13 252.456 70.3353 255.527 71.8646 257.77C71.398 259.96 70.1797 265.74 70.1149 267.062C70.0501 268.384 74.003 267.464 75.9989 266.958C79.7055 275.253 86.4966 281.007 88.6091 281.668C92.2898 282.822 98.109 276.769 101.193 272.078C104.278 267.386 101.945 262.111 101.958 260.012C101.971 257.912 108.892 253.298 111.458 251.834C114.024 250.369 116.409 243.708 115.372 237.241Z" fill="white"/>
</mask>
<g mask="url(#mask3_846_641)">
<g style="mix-blend-mode:multiply" opacity="0.5">
<path d="M66.447 241.556C66.3555 243.665 66.686 245.772 67.419 247.751C69.1816 252.456 70.3869 255.527 71.9162 257.77C71.4496 259.96 70.2313 265.74 70.1665 267.062C70.1017 268.384 74.0546 267.464 76.0505 266.958C79.7571 275.253 86.5482 281.007 88.6607 281.668C92.3414 282.822 98.1606 276.769 101.245 272.078C102.016 270.906 102.516 269.578 102.71 268.19C102.541 267.58 102.424 267.205 102.424 267.205C102.424 267.205 100.688 273.879 97.2404 273.011C93.793 272.142 88.5182 265.235 85.5762 262.85C82.6343 260.465 83.8395 257.329 83.2563 253.778C82.6731 250.227 73.9639 247.103 73.3807 245.069C72.7975 243.034 74.8322 234.61 74.8322 234.61C74.8322 234.61 78.1371 230.203 77.4243 232.018C76.9204 233.591 76.7377 235.249 76.8869 236.895C77.036 238.54 77.514 240.138 78.2926 241.595C78.8389 242.745 79.7055 243.712 80.7884 244.381C81.8712 245.05 83.1242 245.393 84.3968 245.367L87.5591 229.698L80.8846 224.177L73.1085 227.417C67.3023 234.376 65.3194 236.269 66.447 241.556Z" fill="#01BAF2"/>
</g>
</g>
<path d="M115.372 237.241C114.322 230.76 106.896 217.58 95.1152 218.085C87.4687 218.422 83.8916 219.965 80.5738 221.844C77.8694 223.437 75.3485 225.324 73.0569 227.469C67.3026 234.376 65.2808 236.269 66.3954 241.556C66.3039 243.665 66.6344 245.772 67.3674 247.751C69.13 252.456 70.3353 255.527 71.8646 257.77C71.398 259.96 70.1797 265.74 70.1149 267.062C70.0501 268.384 74.003 267.464 75.9989 266.958C79.7055 275.253 86.4966 281.007 88.6091 281.668C92.2898 282.822 98.109 276.769 101.193 272.078C104.278 267.386 101.945 262.111 101.958 260.012C101.971 257.912 108.892 253.298 111.458 251.834C114.024 250.369 116.409 243.708 115.372 237.241Z" stroke="#263238" stroke-miterlimit="10"/>
<path d="M73.4717 253.854L74.7677 257.561C74.7677 257.561 77.5541 258.481 80.9497 254.775" stroke="#263238" stroke-miterlimit="10" stroke-linecap="round"/>
<path d="M83.0498 271.17C83.0498 271.17 86.1343 270.859 87.3785 266.53" stroke="#263238" stroke-miterlimit="10" stroke-linecap="round"/>
<path d="M71.3076 250.758C71.3076 250.758 72.2278 247.972 77.7877 247.972" stroke="#263238" stroke-miterlimit="10" stroke-linecap="round"/>
<path d="M99.8069 212.926C95.7669 212.345 91.6928 212.033 87.6114 211.993C87.6114 211.993 75.4029 204.956 63.6739 212.46C51.9449 219.963 57.5826 233.105 57.5826 236.384C57.5826 239.663 53.8242 239.676 56.17 243.901C58.5158 248.126 66.4474 245.793 66.4474 245.793C66.5312 244.2 66.9523 242.642 67.6829 241.223C68.4135 239.805 69.4368 238.557 70.6854 237.563C74.9104 234.285 78.2801 233.572 79.6798 234.518C79.6798 234.518 78.7466 241.555 80.1463 244.368C80.1463 244.368 84.8379 246.713 86.2506 246.713C87.6632 246.713 85.3304 248.696 90.009 250.459C90.8614 250.765 91.7732 250.869 92.6727 250.764C93.5722 250.658 94.4349 250.345 95.1931 249.85C95.88 246.998 97.3834 242.709 100.183 243.707C104.291 245.171 108.037 255.28 102.477 258.727C109.164 259.946 117.264 248.113 117.744 237.33C118.223 226.547 106.754 214.144 99.8069 212.926Z" fill="#263238"/>
<path d="M79.8877 229.893C79.8877 229.893 83.3351 228.039 87.5601 232.005C91.7852 235.971 100.002 241.272 110.888 238.356" stroke="white" stroke-width="0.5" stroke-linecap="round" stroke-linejoin="round"/>
<path d="M79.4082 226.716C79.4082 226.716 81.7799 223.01 85.7457 223.01C89.7116 223.01 98.9781 228.57 106.378 228.57" stroke="white" stroke-width="0.5" stroke-linecap="round" stroke-linejoin="round"/>
<path d="M76.7116 233.857C76.7116 233.857 72.2144 228.31 67.9894 232.808C63.7644 237.305 66.4471 241.556 66.4471 241.556" stroke="white" stroke-width="0.5" stroke-linecap="round" stroke-linejoin="round"/>
<path d="M58.7354 237.564C61.3125 235.24 62.9145 232.027 63.2196 228.57C63.7509 222.751 71.6955 217.722 76.7111 222.491" stroke="white" stroke-width="0.5" stroke-linecap="round" stroke-linejoin="round"/>
<path d="M66.9277 216.4C66.9277 216.4 74.8723 208.727 81.482 218.512" stroke="white" stroke-width="0.5" stroke-linecap="round" stroke-linejoin="round"/>
<path d="M131.586 593.633C131.586 593.633 136.472 601.227 135.928 606.113L135.396 610.999C135.396 610.999 117.472 615.911 113.675 615.911C109.878 615.911 89.7765 614.006 89.7765 614.006L88.9081 610.559C88.8473 610.304 88.876 610.036 88.9893 609.8C89.1025 609.564 89.2935 609.375 89.5302 609.263L107.454 600.904L113.105 594.721L131.586 593.633Z" fill="white" stroke="#263238" stroke-width="1.00396" stroke-miterlimit="10"/>
<path d="M116.397 612.088C121.257 612.464 130.484 609.496 135.837 607.604L135.461 610.999C135.461 610.999 117.472 615.911 113.675 615.911C109.878 615.911 89.7764 614.006 89.7764 614.006L89.1543 611.543C92.3684 611.556 109.968 611.595 116.397 612.088Z" fill="#01BAF2" stroke="#263238" stroke-width="1.00396" stroke-miterlimit="10"/>
<path d="M107.479 600.903L81.3901 612.256C81.3901 612.256 79.161 617.842 81.3901 618.956C83.6193 620.071 132.22 618.956 132.22 618.956C132.22 618.956 135.577 610.13 130.276 604.207C124.975 598.285 107.479 600.903 107.479 600.903Z" fill="white" stroke="#263238" stroke-width="1.00396" stroke-miterlimit="10"/>
<path d="M132.22 618.956C132.22 618.956 83.6194 620.071 81.3902 618.956C80.3145 618.412 80.2756 616.844 80.5219 615.354H133.075C132.904 616.579 132.617 617.785 132.22 618.956Z" fill="#01BAF2" stroke="#263238" stroke-width="1.00396" stroke-miterlimit="10"/>
<path d="M95.1415 403.637C95.1415 403.637 88.3244 433.847 85.7453 452.743C83.1663 471.639 81.6499 509.495 82.1942 513.837C82.7386 518.179 109.877 590.924 109.877 590.924L112.586 597.405L131.586 593.607C131.586 593.607 122.902 565.924 119.649 550.722C116.396 535.52 109.281 510.545 109.281 506.204C109.281 501.862 126.129 418.943 127.335 413.499C128.54 408.056 134.009 399.697 134.009 399.697L97.6298 398.958L95.1415 403.637Z" fill="#01BAF2" stroke="#263238" stroke-width="1.00396" stroke-miterlimit="10"/>
<path d="M95.1412 403.637C95.1412 403.637 91.1495 431.229 92.7954 450.41C94.4414 469.591 97.9795 510.429 97.9795 516.507C97.9795 522.585 107.79 558.887 108.348 570.292C109.216 586.764 107.998 594.916 107.998 594.916L107.415 600.891C107.415 600.891 118.858 602.524 121.36 603.237C124.249 603.981 127.23 604.304 130.212 604.196C130.212 604.196 134.372 585.883 134.372 570.279C134.372 554.675 130.911 522.56 129.188 509.547C127.464 496.535 132.894 446.341 135.979 436.97C139.063 427.6 145.803 407.758 141.267 397.623C136.73 387.488 95.1412 403.637 95.1412 403.637Z" fill="#01BAF2" stroke="#263238" stroke-width="1.00396" stroke-miterlimit="10"/>
<path d="M146.308 392.542L145.893 404.88C145.893 404.88 138.506 406.345 128.552 408.068C120.336 409.494 99.7031 407.692 92.7564 407.019C92.1234 406.962 91.5381 406.659 91.1279 406.173C90.7178 405.688 90.5159 405.06 90.5662 404.427L91.2401 393.281L146.308 392.542Z" fill="#263238"/>
<path d="M117.433 269.551C117.433 269.551 105.768 282.161 101.375 290.002C96.9814 297.843 95.2448 309.857 93.5988 319.318C91.9529 328.779 96.4112 350.993 95.1541 361.192L91.1753 393.321C91.1753 393.321 90.3199 395.498 93.1841 397.883C96.0483 400.267 110.032 401.136 122.669 401.771C127.282 402.004 141.059 399.036 143.314 398.894C146.036 398.725 146.127 395.265 146.243 392.543C146.787 379.751 149.094 345.653 150.611 330.801C153.734 300.513 136.64 271.274 117.433 269.551Z" fill="white" stroke="#263238" stroke-width="1.00396" stroke-miterlimit="10"/>
<g style="mix-blend-mode:multiply">
<path d="M149.185 348.024C149.704 341.297 150.222 335.193 150.676 330.8C150.805 329.504 150.883 328.208 150.948 326.911L119.96 332.096L93.3398 323.023C93.3427 328.532 93.6543 334.035 94.273 339.509L120.388 346.818L149.185 348.024Z" fill="#01BAF2"/>
</g>
<g style="mix-blend-mode:multiply">
<path d="M116.28 270.82C114.518 272.777 111.018 276.756 107.688 280.981L127.361 300.979L133.841 298.387L116.28 270.82Z" fill="#01BAF2"/>
</g>
<path d="M117.433 269.551C117.433 269.551 105.768 282.161 101.375 290.002C100.072 292.385 99.0169 294.895 98.2256 297.493L121.684 270.393C120.298 269.973 118.874 269.691 117.433 269.551Z" fill="#263238"/>
<g style="mix-blend-mode:multiply">
<path d="M94.5059 314.212L119.96 322.584L150.87 319.033C150.385 311.333 148.675 303.759 145.802 296.599L120.88 306.591L98.6013 296.495C96.7796 302.286 95.4103 308.209 94.5059 314.212Z" fill="#01BAF2"/>
</g>
<g style="mix-blend-mode:multiply">
<path d="M138.324 379.75C125.414 381.918 112.168 380.836 99.7806 376.601L93.5727 374.476L91.6416 390.028L98.7179 392.011C112.17 395.772 126.23 396.855 140.1 395.199L145.815 394.512C146.113 393.882 146.28 393.199 146.308 392.503C146.463 389.043 146.735 384.014 147.085 378.247L138.324 379.75Z" fill="#01BAF2"/>
</g>
<g style="mix-blend-mode:multiply">
<path d="M141.786 358.573C128.875 360.749 115.626 359.662 103.242 355.411L95.3366 352.702C95.5327 355.526 95.4937 358.361 95.22 361.178L94.2998 368.656L102.18 370.859C115.627 374.624 129.682 375.712 143.549 374.061L147.437 373.594C147.761 368.41 148.136 362.889 148.538 357.433L141.786 358.573Z" fill="#01BAF2"/>
</g>
<path d="M20.1949 303.768L45.2539 323.916L46.334 322.573L21.275 302.425L20.1949 303.768Z" fill="#263238"/>
<path d="M129.499 283.534C129.499 283.534 138.688 289.794 138.895 304.582C138.986 311.062 138.312 317.114 136.821 327.728C135.331 338.343 126.077 372.908 118.871 377.107C111.666 381.306 100.481 373.374 100.481 373.374L46.3851 337.462L33.3082 326.899L26.8281 314.665L28.8629 310.777L44.8169 323.011L36.2243 315.066L37.9091 312.928L41.0195 315.092L50.0917 318.488L52.0746 331.448L54.874 333.366L106.624 352.275C106.624 352.275 105.976 324.424 106.456 319.097C106.935 313.77 107.596 300.382 113.299 290.675" fill="white"/>
<mask id="mask4_846_641" style="mask-type:luminance" maskUnits="userSpaceOnUse" x="26" y="283" width="113" height="96">
<path d="M129.499 283.534C129.499 283.534 138.688 289.794 138.895 304.582C138.986 311.062 138.312 317.114 136.821 327.728C135.331 338.343 126.077 372.908 118.871 377.107C111.666 381.306 100.481 373.374 100.481 373.374L46.3851 337.462L33.3082 326.899L26.8281 314.665L28.8629 310.777L44.8169 323.011L36.2243 315.066L37.9091 312.928L41.0195 315.092L50.0917 318.488L52.0746 331.448L54.874 333.366L106.624 352.275C106.624 352.275 105.976 324.424 106.456 319.097C106.935 313.77 107.596 300.382 113.299 290.675" fill="white"/>
</mask>
<g mask="url(#mask4_846_641)">
<g style="mix-blend-mode:multiply" opacity="0.5">
<path d="M106.262 331.229C106.262 340.845 106.586 352.276 106.586 352.276L54.8878 333.445L52.0884 331.527L50.1054 318.566L41.0333 315.171L37.9358 312.968L36.251 315.106L44.8177 323.012L28.8637 310.777L26.9326 314.601L33.4127 326.835L46.4895 337.462L49.7814 339.653L121.257 362.683L106.262 331.229Z" fill="#01BAF2"/>
</g>
</g>
<path d="M129.499 283.534C129.499 283.534 138.688 289.794 138.895 304.582C138.986 311.062 138.312 317.114 136.821 327.728C135.331 338.343 126.077 372.908 118.871 377.107C111.666 381.306 100.481 373.374 100.481 373.374L46.3851 337.462L33.3082 326.899L26.8281 314.665L28.8629 310.777L44.8169 323.011L36.2243 315.066L37.9091 312.928L41.0195 315.092L50.0917 318.488L52.0746 331.448L54.874 333.366L106.624 352.275C106.624 352.275 105.976 324.424 106.456 319.097C106.935 313.77 107.596 300.382 113.299 290.675" stroke="#263238" stroke-width="1.00396" stroke-miterlimit="10"/>
<path d="M106.624 352.275L126.375 366.531L131.495 357.459C131.495 357.459 135.033 354.673 135.551 352.573C136.069 350.474 135.409 347.065 135.94 344.966C136.471 342.866 139.115 340.896 139.361 335.816C139.608 330.735 139.361 326.497 139.361 326.497C139.361 326.497 143.638 308.91 143.172 301.264C142.705 293.617 135.331 280.1 129.421 279.802C123.511 279.504 115.826 280.398 109.864 289.418C103.902 298.438 105.121 324.774 104.187 326.419C103.254 328.065 104.55 336.191 104.55 336.191C104.032 336.578 103.603 337.07 103.29 337.635C102.977 338.201 102.788 338.826 102.736 339.47C102.632 341.583 104.913 346.78 104.913 346.78L106.624 352.275Z" fill="white" stroke="#263238" stroke-width="1.00396" stroke-miterlimit="10"/>
<g style="mix-blend-mode:multiply">
<path d="M104.706 319.654C104.746 321.916 104.577 324.176 104.2 326.407C103.371 327.884 104.317 334.559 104.524 335.919C115.634 339.37 127.381 340.256 138.882 338.511C139.129 337.61 139.277 336.684 139.322 335.751C139.582 330.683 139.322 326.432 139.322 326.432C139.322 326.432 139.698 324.864 140.217 322.48C128.306 323.237 116.347 322.285 104.706 319.654Z" fill="#01BAF2"/>
</g>
<g style="mix-blend-mode:multiply">
<path d="M109.06 290.856C107.206 294.576 106.169 300.162 105.573 305.825C117.339 310.316 130.024 311.86 142.523 310.323C143.021 307.325 143.243 304.288 143.184 301.251C142.959 298.849 142.392 296.492 141.499 294.252C130.585 294.507 119.684 293.366 109.06 290.856Z" fill="#01BAF2"/>
</g>
<path d="M104.913 346.922L106.585 352.274L126.336 366.531L131.456 357.459C131.456 357.459 134.994 354.672 135.512 352.573C135.605 352.207 135.661 351.834 135.681 351.458C125.272 351.278 114.931 349.754 104.913 346.922Z" fill="#263238"/>
<path d="M119.209 603.068C119.209 603.068 119.649 591.844 121.801 575.437C123.952 559.029 118.781 535.727 117.913 531.839C117.044 527.951 118.353 519.319 117.485 516.286C116.617 513.254 112.418 500.319 114.893 485.311C117.368 470.304 119.377 430.632 119.377 430.632C119.377 430.632 113.143 425.565 111.316 418.968C109.489 412.371 110.888 410.298 110.888 410.298" stroke="#263238" stroke-width="1.00396" stroke-miterlimit="10"/>
<path d="M122.099 410.907L119.701 424.178" stroke="#263238" stroke-width="1.00396" stroke-miterlimit="10"/>
<path d="M255.029 62.7C255.896 62.7 256.562 63.1 257.029 63.9C257.562 64.7 257.829 65.8 257.829 67.2C257.829 69.8 257.196 71.8667 255.929 73.4C252.196 77.8667 248.562 81 245.029 82.8C241.562 84.6 237.362 85.5 232.429 85.5C228.962 85.5 225.762 85.0667 222.829 84.2C219.896 83.3333 216.329 82.0333 212.129 80.3C208.329 78.6333 204.662 77.2667 201.129 76.2C197.729 82.4 192.629 85.5 185.829 85.5C182.096 85.5 179.129 84.6667 176.929 83C174.662 81.2667 173.529 79.0667 173.529 76.4C173.529 73.1333 175.096 70.4333 178.229 68.3C181.362 66.1 185.529 65 190.729 65H192.029L193.829 35.9C194.229 29.2333 195.429 23.7333 197.429 19.4C199.429 15.0667 202.196 11.3667 205.729 8.3C208.796 5.63333 212.296 3.63333 216.229 2.3C220.162 0.899996 224.329 0.199995 228.729 0.199995C235.929 0.199995 241.462 2.06666 245.329 5.79999C249.196 9.53333 251.129 14.4 251.129 20.4C251.129 24.4667 250.396 27.7667 248.929 30.3C247.462 32.7667 245.429 34 242.829 34C240.962 34 239.496 33.5667 238.429 32.7C237.362 31.7667 236.829 30.4667 236.829 28.8C236.829 28.2 236.962 27.1 237.229 25.5C237.629 23.6333 237.829 21.9667 237.829 20.5C237.829 17.7 236.996 15.5 235.329 13.9C233.729 12.2333 231.262 11.4 227.929 11.4C222.062 11.4 217.529 13.3333 214.329 17.2C211.129 21 209.096 27 208.229 35.2L205.929 57.9C205.596 61.1 205.162 63.8667 204.629 66.2C208.896 66.9333 214.229 68.1 220.629 69.7C224.362 70.6333 227.229 71.3 229.229 71.7C231.229 72.1 232.996 72.3 234.529 72.3C238.396 72.3 241.696 71.6667 244.429 70.4C247.229 69.0667 249.862 66.9667 252.329 64.1C253.129 63.1667 254.029 62.7 255.029 62.7ZM261.514 85.5C257.381 85.5 254.081 84 251.614 81C249.147 78 247.914 74.0667 247.914 69.2C247.914 63.8667 249.147 58.8333 251.614 54.1C254.081 49.3 257.347 45.4667 261.414 42.6C265.547 39.6667 269.914 38.2 274.514 38.2C275.981 38.2 276.947 38.5 277.414 39.1C277.947 39.6333 278.381 40.6333 278.714 42.1C280.114 41.8333 281.581 41.7 283.114 41.7C286.381 41.7 288.014 42.8667 288.014 45.2C288.014 46.6 287.514 49.9333 286.514 55.2C284.981 62.8667 284.214 68.2 284.214 71.2C284.214 72.2 284.447 73 284.914 73.6C285.447 74.2 286.114 74.5 286.914 74.5C288.181 74.5 289.714 73.7 291.514 72.1C293.314 70.4333 295.747 67.7667 298.814 64.1C299.614 63.1667 300.514 62.7 301.514 62.7C302.381 62.7 303.047 63.1 303.514 63.9C304.047 64.7 304.314 65.8 304.314 67.2C304.314 69.8667 303.681 71.9333 302.414 73.4C299.681 76.8 296.781 79.6667 293.714 82C290.647 84.3333 287.681 85.5 284.814 85.5C282.614 85.5 280.581 84.7667 278.714 83.3C276.914 81.7667 275.547 79.7 274.614 77.1C271.147 82.7 266.781 85.5 261.514 85.5ZM265.114 75.4C266.581 75.4 267.981 74.5333 269.314 72.8C270.647 71.0667 271.614 68.7667 272.214 65.9L275.914 47.5C273.114 47.5667 270.514 48.6333 268.114 50.7C265.781 52.7 263.914 55.3667 262.514 58.7C261.114 62.0333 260.414 65.5667 260.414 69.3C260.414 71.3667 260.814 72.9 261.614 73.9C262.481 74.9 263.647 75.4 265.114 75.4ZM314.787 85.5C308.253 85.5 303.153 83.6667 299.487 80C295.887 76.2667 294.087 71.3667 294.087 65.3C294.087 59.9 295.153 55.1667 297.287 51.1C299.42 47.0333 302.187 43.9 305.587 41.7C308.987 39.5 312.553 38.4 316.287 38.4C319.953 38.4 322.787 39.5 324.787 41.7C326.853 43.8333 327.887 46.6 327.887 50C327.887 52.8 327.253 55.1667 325.987 57.1C324.787 59.0333 323.187 60 321.187 60C319.92 60 318.887 59.7 318.087 59.1C317.353 58.5 316.987 57.6667 316.987 56.6C316.987 56.1333 317.053 55.6 317.187 55C317.32 54.4 317.42 53.9667 317.487 53.7C317.82 52.7 317.987 51.7667 317.987 50.9C317.987 50.0333 317.753 49.3667 317.287 48.9C316.887 48.4333 316.287 48.2 315.487 48.2C313.953 48.2 312.52 48.9 311.187 50.3C309.853 51.6333 308.787 53.4667 307.987 55.8C307.187 58.1333 306.787 60.7 306.787 63.5C306.787 71.2333 310.153 75.1 316.887 75.1C319.62 75.1 322.553 74.2 325.687 72.4C328.887 70.5333 332.02 67.7667 335.087 64.1C335.887 63.1667 336.787 62.7 337.787 62.7C338.653 62.7 339.32 63.1 339.787 63.9C340.32 64.7 340.587 65.8 340.587 67.2C340.587 69.7333 339.953 71.8 338.687 73.4C335.553 77.2667 331.787 80.2667 327.387 82.4C323.053 84.4667 318.853 85.5 314.787 85.5ZM345.803 31.8C343.003 31.8 340.903 31.1667 339.503 29.9C338.103 28.5667 337.403 26.7333 337.403 24.4C337.403 22.0667 338.303 20.1333 340.103 18.6C341.97 17 344.27 16.2 347.003 16.2C349.47 16.2 351.47 16.8 353.003 18C354.536 19.2 355.303 20.9 355.303 23.1C355.303 25.7667 354.436 27.9 352.703 29.5C350.97 31.0333 348.67 31.8 345.803 31.8ZM336.203 85.5C334.07 85.5 332.603 85.0667 331.803 84.2C331.003 83.3333 330.603 81.9667 330.603 80.1C330.603 79.5667 330.67 78.6333 330.803 77.3C331.87 65.1 333.636 54 336.103 44C336.636 41.9333 337.503 40.5 338.703 39.7C339.97 38.8333 341.97 38.4 344.703 38.4C347.57 38.4 349.003 39.5667 349.003 41.9C349.003 42.2333 348.936 42.8667 348.803 43.8C345.803 58.0667 344.003 70.0333 343.403 79.7C343.27 81.8333 342.636 83.3333 341.503 84.2C340.37 85.0667 338.603 85.5 336.203 85.5Z" fill="white"/>
<path d="M151.748 675.18C150.721 675.18 149.768 675 148.888 674.64C148.008 674.267 147.241 673.753 146.588 673.1C145.935 672.433 145.421 671.667 145.048 670.8C144.688 669.92 144.508 668.967 144.508 667.94C144.508 666.913 144.688 665.967 145.048 665.1C145.421 664.22 145.935 663.453 146.588 662.8C147.241 662.147 148.008 661.64 148.888 661.28C149.768 660.907 150.721 660.72 151.748 660.72C152.775 660.72 153.721 660.907 154.588 661.28C155.468 661.64 156.235 662.147 156.888 662.8C157.541 663.453 158.048 664.22 158.408 665.1C158.781 665.967 158.968 666.913 158.968 667.94C158.968 668.967 158.781 669.92 158.408 670.8C158.048 671.667 157.541 672.433 156.888 673.1C156.235 673.753 155.468 674.267 154.588 674.64C153.721 675 152.775 675.18 151.748 675.18ZM151.748 674.3C152.641 674.3 153.468 674.14 154.228 673.82C155.001 673.5 155.668 673.053 156.228 672.48C156.801 671.893 157.248 671.22 157.568 670.46C157.888 669.687 158.048 668.847 158.048 667.94C158.048 667.033 157.888 666.2 157.568 665.44C157.248 664.667 156.801 663.993 156.228 663.42C155.668 662.847 155.001 662.4 154.228 662.08C153.468 661.76 152.641 661.6 151.748 661.6C150.855 661.6 150.021 661.76 149.248 662.08C148.475 662.4 147.801 662.847 147.228 663.42C146.668 663.993 146.228 664.667 145.908 665.44C145.588 666.2 145.428 667.033 145.428 667.94C145.428 668.847 145.588 669.687 145.908 670.46C146.228 671.22 146.668 671.893 147.228 672.48C147.801 673.053 148.475 673.5 149.248 673.82C150.021 674.14 150.855 674.3 151.748 674.3ZM152.008 672.26C150.728 672.26 149.715 671.867 148.968 671.08C148.221 670.28 147.848 669.22 147.848 667.9C147.848 666.58 148.221 665.54 148.968 664.78C149.715 664.02 150.728 663.64 152.008 663.64C152.541 663.64 153.061 663.733 153.568 663.92C154.088 664.107 154.521 664.367 154.868 664.7L154.388 665.74C154.028 665.42 153.648 665.187 153.248 665.04C152.848 664.893 152.455 664.82 152.068 664.82C151.201 664.82 150.521 665.093 150.028 665.64C149.535 666.173 149.288 666.927 149.288 667.9C149.288 668.873 149.535 669.647 150.028 670.22C150.521 670.78 151.201 671.06 152.068 671.06C152.455 671.06 152.848 670.987 153.248 670.84C153.648 670.693 154.028 670.46 154.388 670.14L154.868 671.2C154.521 671.52 154.088 671.78 153.568 671.98C153.048 672.167 152.528 672.26 152.008 672.26ZM160.177 675L160.377 673.76L165.877 668.62C166.65 667.913 167.283 667.207 167.777 666.5C168.27 665.793 168.517 665.04 168.517 664.24C168.517 663.587 168.297 663.08 167.857 662.72C167.417 662.36 166.797 662.18 165.997 662.18C165.317 662.18 164.65 662.32 163.997 662.6C163.357 662.88 162.723 663.28 162.097 663.8L161.537 662.5C162.177 661.94 162.897 661.507 163.697 661.2C164.51 660.88 165.363 660.72 166.257 660.72C167.457 660.72 168.41 661.033 169.117 661.66C169.823 662.273 170.177 663.067 170.177 664.04C170.177 664.787 170.03 665.48 169.737 666.12C169.443 666.76 169.043 667.373 168.537 667.96C168.043 668.533 167.483 669.1 166.857 669.66L162.577 673.6H169.297L169.077 675H160.177ZM176.329 675.18C174.875 675.18 173.769 674.74 173.009 673.86C172.262 672.967 171.889 671.68 171.889 670C171.889 668.08 172.115 666.427 172.569 665.04C173.022 663.653 173.669 662.587 174.509 661.84C175.349 661.093 176.342 660.72 177.489 660.72C178.942 660.72 180.042 661.167 180.789 662.06C181.535 662.94 181.909 664.213 181.909 665.88C181.909 667.813 181.682 669.473 181.229 670.86C180.775 672.247 180.129 673.313 179.289 674.06C178.449 674.807 177.462 675.18 176.329 675.18ZM176.409 673.76C177.582 673.76 178.515 673.06 179.209 671.66C179.915 670.247 180.269 668.2 180.269 665.52C180.282 663.267 179.329 662.14 177.409 662.14C176.222 662.14 175.275 662.847 174.569 664.26C173.875 665.66 173.529 667.7 173.529 670.38C173.529 672.633 174.489 673.76 176.409 673.76ZM183.161 675L183.361 673.76L188.861 668.62C189.634 667.913 190.268 667.207 190.761 666.5C191.254 665.793 191.501 665.04 191.501 664.24C191.501 663.587 191.281 663.08 190.841 662.72C190.401 662.36 189.781 662.18 188.981 662.18C188.301 662.18 187.634 662.32 186.981 662.6C186.341 662.88 185.708 663.28 185.081 663.8L184.521 662.5C185.161 661.94 185.881 661.507 186.681 661.2C187.494 660.88 188.348 660.72 189.241 660.72C190.441 660.72 191.394 661.033 192.101 661.66C192.808 662.273 193.161 663.067 193.161 664.04C193.161 664.787 193.014 665.48 192.721 666.12C192.428 666.76 192.028 667.373 191.521 667.96C191.028 668.533 190.468 669.1 189.841 669.66L185.561 673.6H192.281L192.061 675H183.161ZM200.313 675L200.793 671.98H194.273L194.453 670.74L202.813 660.9H204.173L202.633 670.58H204.733L204.533 671.98H202.433L201.953 675H200.313ZM200.993 670.58L202.113 663.58L196.193 670.58H200.993ZM217.282 675.18C216.082 675.18 215.029 674.953 214.122 674.5C213.215 674.033 212.502 673.333 211.982 672.4C211.462 671.467 211.202 670.287 211.202 668.86C211.202 667.7 211.369 666.627 211.702 665.64C212.035 664.653 212.515 663.793 213.142 663.06C213.782 662.327 214.549 661.753 215.442 661.34C216.349 660.927 217.369 660.72 218.502 660.72C219.475 660.72 220.362 660.88 221.162 661.2C221.962 661.52 222.615 661.96 223.122 662.52L222.382 663.84C221.835 663.293 221.242 662.887 220.602 662.62C219.962 662.353 219.242 662.22 218.442 662.22C217.295 662.22 216.315 662.507 215.502 663.08C214.689 663.653 214.062 664.44 213.622 665.44C213.182 666.427 212.962 667.553 212.962 668.82C212.962 670.553 213.355 671.8 214.142 672.56C214.929 673.307 216.022 673.68 217.422 673.68C218.155 673.68 218.829 673.56 219.442 673.32C220.069 673.067 220.709 672.66 221.362 672.1L221.962 673.42C221.349 673.993 220.635 674.433 219.822 674.74C219.022 675.033 218.175 675.18 217.282 675.18ZM227.016 675.18C225.709 675.18 224.676 674.8 223.916 674.04C223.169 673.267 222.796 672.22 222.796 670.9C222.796 669.807 223.009 668.82 223.436 667.94C223.863 667.06 224.456 666.367 225.216 665.86C225.989 665.353 226.896 665.1 227.936 665.1C229.243 665.1 230.269 665.487 231.016 666.26C231.763 667.02 232.136 668.06 232.136 669.38C232.136 670.473 231.923 671.46 231.496 672.34C231.083 673.207 230.489 673.9 229.716 674.42C228.943 674.927 228.043 675.18 227.016 675.18ZM227.076 673.88C227.809 673.88 228.429 673.673 228.936 673.26C229.456 672.847 229.843 672.3 230.096 671.62C230.363 670.927 230.496 670.16 230.496 669.32C230.496 668.36 230.263 667.633 229.796 667.14C229.343 666.647 228.703 666.4 227.876 666.4C227.143 666.4 226.516 666.607 225.996 667.02C225.489 667.42 225.103 667.967 224.836 668.66C224.569 669.353 224.436 670.12 224.436 670.96C224.436 671.907 224.669 672.633 225.136 673.14C225.603 673.633 226.249 673.88 227.076 673.88ZM232.709 678.6L234.809 665.28H236.409L236.149 666.88C236.523 666.32 236.996 665.887 237.569 665.58C238.156 665.26 238.816 665.1 239.549 665.1C240.696 665.1 241.609 665.473 242.289 666.22C242.969 666.967 243.309 667.987 243.309 669.28C243.309 670.347 243.116 671.327 242.729 672.22C242.356 673.113 241.803 673.833 241.069 674.38C240.349 674.913 239.469 675.18 238.429 675.18C237.709 675.18 237.056 675.013 236.469 674.68C235.883 674.333 235.456 673.813 235.189 673.12L234.329 678.6H232.709ZM238.229 673.88C238.976 673.88 239.603 673.673 240.109 673.26C240.616 672.847 241.003 672.3 241.269 671.62C241.536 670.927 241.669 670.16 241.669 669.32C241.669 668.36 241.436 667.633 240.969 667.14C240.503 666.647 239.863 666.4 239.049 666.4C238.303 666.4 237.676 666.607 237.169 667.02C236.663 667.42 236.276 667.967 236.009 668.66C235.743 669.353 235.609 670.12 235.609 670.96C235.609 671.907 235.843 672.633 236.309 673.14C236.776 673.633 237.416 673.88 238.229 673.88ZM244.853 678.6L247.093 674.84L244.513 665.28H246.173L248.133 673.16L252.673 665.28H254.433L246.553 678.6H244.853ZM254.066 675L255.626 665.28H257.206L256.946 666.9C257.24 666.38 257.646 665.967 258.166 665.66C258.7 665.34 259.346 665.147 260.106 665.08L260.886 665.02L260.906 666.42L259.786 666.52C258.72 666.627 257.946 666.947 257.466 667.48C257 668.013 256.693 668.733 256.546 669.64L255.706 675H254.066ZM262.494 662.86L262.774 661.04H264.774L264.474 662.86H262.494ZM260.734 675L262.274 665.28H263.894L262.354 675H260.734ZM269.103 678.78C268.196 678.78 267.383 678.647 266.663 678.38C265.943 678.127 265.303 677.787 264.743 677.36L265.303 676.16C265.889 676.573 266.456 676.893 267.003 677.12C267.549 677.36 268.189 677.48 268.923 677.48C269.776 677.48 270.469 677.26 271.003 676.82C271.536 676.393 271.876 675.727 272.023 674.82L272.323 672.98C271.963 673.54 271.489 673.98 270.903 674.3C270.316 674.62 269.649 674.78 268.903 674.78C267.729 674.78 266.789 674.42 266.083 673.7C265.376 672.98 265.023 672.013 265.023 670.8C265.023 669.8 265.216 668.867 265.603 668C265.989 667.133 266.549 666.433 267.283 665.9C268.016 665.367 268.903 665.1 269.943 665.1C270.689 665.1 271.356 665.273 271.943 665.62C272.529 665.953 272.956 666.467 273.223 667.16L273.523 665.28H275.103L273.603 674.74C273.176 677.433 271.676 678.78 269.103 678.78ZM269.323 673.46C270.069 673.46 270.703 673.26 271.223 672.86C271.743 672.46 272.136 671.933 272.403 671.28C272.669 670.613 272.803 669.893 272.803 669.12C272.803 668.267 272.569 667.6 272.103 667.12C271.636 666.64 270.983 666.4 270.143 666.4C269.383 666.4 268.743 666.607 268.223 667.02C267.716 667.42 267.329 667.947 267.063 668.6C266.809 669.253 266.676 669.96 266.663 670.72C266.663 671.6 266.896 672.28 267.363 672.76C267.829 673.227 268.483 673.46 269.323 673.46ZM276.101 675L278.341 660.9H279.961L279.021 666.86C279.381 666.3 279.855 665.867 280.441 665.56C281.028 665.253 281.701 665.1 282.461 665.1C283.541 665.1 284.355 665.427 284.901 666.08C285.461 666.733 285.628 667.747 285.401 669.12L284.481 675H282.861L283.781 669.12C284.075 667.32 283.475 666.42 281.981 666.42C281.008 666.42 280.235 666.72 279.661 667.32C279.088 667.92 278.721 668.72 278.561 669.72L277.721 675H276.101ZM290.989 675.18C289.855 675.18 289.022 674.86 288.489 674.22C287.969 673.58 287.795 672.727 287.969 671.66L288.789 666.54H286.869L287.089 665.28H288.989L289.449 662.3H291.069L290.609 665.28H293.689L293.469 666.54H290.389L289.609 671.5C289.475 672.313 289.555 672.9 289.849 673.26C290.155 673.62 290.635 673.8 291.289 673.8C291.515 673.8 291.722 673.78 291.909 673.74C292.109 673.687 292.295 673.633 292.469 673.58L292.629 674.84C292.455 674.933 292.209 675.013 291.889 675.08C291.582 675.147 291.282 675.18 290.989 675.18ZM298.337 675L300.577 660.9H302.217L300.217 673.56H307.357L307.137 675H298.337ZM311.697 675.18C311.137 675.18 310.61 675.053 310.117 674.8C309.637 674.547 309.25 674.2 308.957 673.76C308.663 673.32 308.517 672.82 308.517 672.26C308.517 671.233 308.95 670.493 309.817 670.04C310.697 669.587 312.097 669.36 314.017 669.36H315.397L315.497 668.76C315.63 668 315.53 667.42 315.197 667.02C314.863 666.607 314.277 666.4 313.437 666.4C312.25 666.4 311.15 666.74 310.137 667.42L309.677 666.24C310.157 665.893 310.75 665.62 311.457 665.42C312.177 665.207 312.897 665.1 313.617 665.1C314.977 665.1 315.93 665.473 316.477 666.22C317.023 666.967 317.197 667.96 316.997 669.2L316.077 675H314.537L314.777 673.48C314.443 674.053 313.997 674.48 313.437 674.76C312.877 675.04 312.297 675.18 311.697 675.18ZM312.097 673.96C312.817 673.96 313.463 673.72 314.037 673.24C314.61 672.747 314.97 672.067 315.117 671.2L315.237 670.42H314.237C313.21 670.42 312.397 670.473 311.797 670.58C311.21 670.687 310.79 670.867 310.537 671.12C310.283 671.373 310.157 671.72 310.157 672.16C310.157 672.747 310.35 673.193 310.737 673.5C311.123 673.807 311.577 673.96 312.097 673.96ZM322.982 675.18C321.542 675.18 320.469 674.78 319.762 673.98C319.069 673.18 318.722 672.14 318.722 670.86C318.722 670.14 318.822 669.44 319.022 668.76C319.222 668.08 319.536 667.467 319.962 666.92C320.389 666.36 320.929 665.92 321.582 665.6C322.236 665.267 323.016 665.1 323.922 665.1C324.562 665.1 325.176 665.207 325.762 665.42C326.349 665.633 326.816 665.92 327.162 666.28L326.582 667.44C325.902 666.76 325.036 666.42 323.982 666.42C323.116 666.42 322.416 666.64 321.882 667.08C321.362 667.507 320.982 668.06 320.742 668.74C320.502 669.42 320.382 670.12 320.382 670.84C320.382 671.747 320.596 672.48 321.022 673.04C321.462 673.587 322.182 673.86 323.182 673.86C323.582 673.86 324.009 673.78 324.462 673.62C324.916 673.447 325.336 673.187 325.722 672.84L326.202 674.04C325.816 674.4 325.322 674.68 324.722 674.88C324.136 675.08 323.556 675.18 322.982 675.18ZM329.08 662.86L329.36 661.04H331.36L331.06 662.86H329.08ZM327.32 675L328.86 665.28H330.48L328.94 675H327.32ZM339.785 675L341.805 662.32H336.685L336.905 660.9H348.805L348.585 662.32H343.445L341.445 675H339.785ZM350.773 675.18C349.386 675.18 348.286 674.8 347.473 674.04C346.66 673.267 346.253 672.213 346.253 670.88C346.253 669.827 346.466 668.867 346.893 668C347.32 667.12 347.92 666.42 348.693 665.9C349.466 665.367 350.386 665.1 351.453 665.1C352.466 665.1 353.266 665.333 353.853 665.8C354.453 666.267 354.86 666.88 355.073 667.64C355.286 668.387 355.333 669.193 355.213 670.06L355.153 670.48H347.833C347.74 671.52 347.96 672.347 348.493 672.96C349.026 673.573 349.813 673.88 350.853 673.88C351.466 673.88 352.033 673.793 352.553 673.62C353.086 673.433 353.573 673.147 354.013 672.76L354.553 673.86C354.1 674.287 353.533 674.613 352.853 674.84C352.173 675.067 351.48 675.18 350.773 675.18ZM351.433 666.3C350.726 666.3 350.14 666.453 349.673 666.76C349.206 667.053 348.833 667.44 348.553 667.92C348.286 668.4 348.1 668.9 347.993 669.42H353.913C353.993 668.54 353.84 667.8 353.453 667.2C353.08 666.6 352.406 666.3 351.433 666.3ZM359.498 675.18C358.938 675.18 358.411 675.053 357.918 674.8C357.438 674.547 357.051 674.2 356.758 673.76C356.464 673.32 356.318 672.82 356.318 672.26C356.318 671.233 356.751 670.493 357.618 670.04C358.498 669.587 359.898 669.36 361.818 669.36H363.198L363.298 668.76C363.431 668 363.331 667.42 362.998 667.02C362.664 666.607 362.078 666.4 361.238 666.4C360.051 666.4 358.951 666.74 357.938 667.42L357.478 666.24C357.958 665.893 358.551 665.62 359.258 665.42C359.978 665.207 360.698 665.1 361.418 665.1C362.778 665.1 363.731 665.473 364.278 666.22C364.824 666.967 364.998 667.96 364.798 669.2L363.878 675H362.338L362.578 673.48C362.244 674.053 361.798 674.48 361.238 674.76C360.678 675.04 360.098 675.18 359.498 675.18ZM359.898 673.96C360.618 673.96 361.264 673.72 361.838 673.24C362.411 672.747 362.771 672.067 362.918 671.2L363.038 670.42H362.038C361.011 670.42 360.198 670.473 359.598 670.58C359.011 670.687 358.591 670.867 358.338 671.12C358.084 671.373 357.958 671.72 357.958 672.16C357.958 672.747 358.151 673.193 358.538 673.5C358.924 673.807 359.378 673.96 359.898 673.96ZM366.403 675L367.963 665.28H369.543L369.263 666.94C369.623 666.34 370.076 665.887 370.623 665.58C371.183 665.26 371.79 665.1 372.443 665.1C373.15 665.1 373.736 665.273 374.203 665.62C374.67 665.967 374.983 666.473 375.143 667.14C375.49 666.487 375.956 665.987 376.543 665.64C377.143 665.28 377.836 665.1 378.623 665.1C379.636 665.1 380.403 665.427 380.923 666.08C381.456 666.72 381.616 667.733 381.403 669.12L380.463 675H378.843L379.783 669.04C380.05 667.293 379.503 666.42 378.143 666.42C377.33 666.42 376.656 666.713 376.123 667.3C375.59 667.887 375.243 668.693 375.083 669.72L374.243 675H372.623L373.563 669.04C373.843 667.293 373.303 666.42 371.943 666.42C371.13 666.42 370.456 666.713 369.923 667.3C369.39 667.887 369.036 668.693 368.863 669.72L368.023 675H366.403Z" fill="white"/>
</svg>
