<svg width="3190" height="2060" viewBox="0 0 3190 2060" fill="none" xmlns="http://www.w3.org/2000/svg">
<rect x="620" y="411" width="1920" height="1080" fill="#F5F5F5"/>
<path fill-rule="evenodd" clip-rule="evenodd" d="M3089.3 632.521C2980.29 352.82 2646.6 428.207 2516.54 216.182C2445.34 100.117 2335.32 -155.265 1952.72 133.804C1706.38 321.324 1816.2 595.865 2120.08 735.32C2199.23 784.092 2231.99 845.004 2249.79 924.528C2267.59 1004.05 2205.08 1170.68 2288.68 1332.96C2540.25 1821.32 3497.55 1679.99 3089.3 632.521Z" fill="#01BAF2"/>
<path fill-rule="evenodd" clip-rule="evenodd" d="M1151.77 1213.67C1129.3 914.317 788.151 888.848 725.762 648.061C691.609 516.251 661.067 239.863 210.666 404.439C-79.7307 511.743 -54.983 806.395 194.848 1028.6C256.282 1098.39 269.803 1166.21 263.572 1247.47C257.342 1328.72 148.848 1469.79 181.345 1649.43C279.141 2189.99 1235.93 2334.73 1151.77 1213.67Z" fill="#01BAF2"/>
</svg>
