<svg width="28" height="24" viewBox="0 0 28 24" fill="none" xmlns="http://www.w3.org/2000/svg">
<path d="M5.29374 12.3853H2.57558C1.7051 12.3853 1 12.9442 1 13.6316V21.7537C1 22.4411 1.7066 23 2.57558 23H5.29525C6.16723 23 6.87233 22.4411 6.87233 21.7525V13.6316C6.87193 13.3008 6.70564 12.9837 6.40997 12.7498C6.1143 12.516 5.71339 12.3844 5.29525 12.3841M15.3591 1H12.6409C11.7689 1 11.0638 1.55892 11.0638 2.24746V21.7514C11.0638 22.4411 11.7704 22.9988 12.6424 22.9988H15.3591C16.2311 22.9988 16.9362 22.4399 16.9362 21.7514V2.24865C16.9362 1.55892 16.2296 1.00119 15.3576 1.00119M25.4244 7.15643H22.7048C21.8328 7.15643 21.1277 7.71535 21.1277 8.40508V21.7514C21.1277 22.4411 21.8343 22.9988 22.7048 22.9988H25.4229C25.8411 22.9985 26.242 22.867 26.5376 22.6331C26.8333 22.3992 26.9996 22.0821 27 21.7514V8.40389C27 7.71416 26.2934 7.15643 25.4214 7.15643" stroke="black" stroke-width="2" stroke-linecap="round" stroke-linejoin="round"/>
</svg>
