<svg width="18" height="22" viewBox="0 0 18 22" fill="none" xmlns="http://www.w3.org/2000/svg">
<path d="M15.2321 13.1971C15.8927 13.1977 16.5261 13.4588 16.993 13.923C17.4599 14.3872 17.7222 15.0165 17.7222 15.6726V16.3053C17.7222 17.2889 17.3678 18.2405 16.7253 18.9876C14.9862 21.0043 12.3421 22 8.85723 22C5.37238 22 2.72939 21.0043 0.994722 18.9854C0.352925 18.2387 0.000229572 17.2892 0 16.3075V15.6715C0.000293547 15.0154 0.262856 14.3862 0.72999 13.9222C1.19712 13.4582 1.83061 13.1974 2.49124 13.1971H15.2321ZM15.2321 14.8475H2.49013C2.26979 14.8475 2.05848 14.9344 1.90268 15.0892C1.74688 15.2439 1.65935 15.4538 1.65935 15.6726V16.3075C1.65935 16.8961 1.87203 17.466 2.25751 17.9138C3.64547 19.53 5.82433 20.3497 8.85613 20.3497C11.8901 20.3497 14.069 19.53 15.4614 17.9149C15.8476 17.4663 16.0597 16.8955 16.0596 16.3053V15.6715C16.0593 15.4533 15.9719 15.244 15.8166 15.0895C15.6613 14.9351 15.4519 14.8481 15.2321 14.8475ZM8.85723 0C9.58457 -1.07648e-08 10.3048 0.14229 10.9767 0.418746C11.6487 0.695202 12.2593 1.10041 12.7736 1.61123C13.2879 2.12206 13.6958 2.7285 13.9742 3.39592C14.2525 4.06334 14.3958 4.77869 14.3958 5.5011C14.3958 6.22352 14.2525 6.93886 13.9742 7.60628C13.6958 8.27371 13.2879 8.88014 12.7736 9.39097C12.2593 9.90179 11.6487 10.307 10.9767 10.5835C10.3048 10.8599 9.58457 11.0022 8.85723 11.0022C7.38832 11.0022 5.97957 10.4226 4.94089 9.39097C3.90222 8.35931 3.31869 6.96008 3.31869 5.5011C3.31869 4.04212 3.90222 2.64289 4.94089 1.61124C5.97957 0.579579 7.38832 0 8.85723 0ZM8.85723 1.65033C8.3481 1.65033 7.84396 1.74993 7.37358 1.94345C6.9032 2.13697 6.47581 2.42062 6.1158 2.77819C5.75579 3.13577 5.47021 3.56028 5.27537 4.02747C5.08054 4.49467 4.98026 4.99541 4.98026 5.5011C4.98026 6.00679 5.08054 6.50753 5.27537 6.97473C5.47021 7.44192 5.75579 7.86643 6.1158 8.22401C6.47581 8.58158 6.9032 8.86523 7.37358 9.05875C7.84396 9.25227 8.3481 9.35187 8.85723 9.35187C9.88547 9.35187 10.8716 8.94617 11.5987 8.22401C12.3257 7.50185 12.7342 6.52239 12.7342 5.5011C12.7342 4.47981 12.3257 3.50035 11.5987 2.77819C10.8716 2.05603 9.88547 1.65033 8.85723 1.65033Z" fill="black"/>
</svg>
