<svg width="20" height="20" viewBox="0 0 20 20" fill="none" xmlns="http://www.w3.org/2000/svg">
<path d="M16.5915 12.9253H12.8165C12.5955 12.9253 12.3835 13.0131 12.2272 13.1694C12.071 13.3257 11.9832 13.5376 11.9832 13.7587C11.9832 13.9797 12.071 14.1916 12.2272 14.3479C12.3835 14.5042 12.5955 14.592 12.8165 14.592H14.8165C13.8973 15.5526 12.7118 16.2164 11.4125 16.4982C10.1131 16.7799 8.75918 16.6667 7.52465 16.173C6.29012 15.6794 5.23139 14.8279 4.4845 13.728C3.7376 12.628 3.33665 11.3299 3.33317 10.0003C3.33317 9.77931 3.24537 9.56735 3.08909 9.41107C2.93281 9.25479 2.72085 9.16699 2.49984 9.16699C2.27882 9.16699 2.06686 9.25479 1.91058 9.41107C1.7543 9.56735 1.6665 9.77931 1.6665 10.0003C1.67091 11.6277 2.15169 13.2181 3.04951 14.5753C3.94733 15.9326 5.22289 16.9973 6.71879 17.638C8.21469 18.2787 9.86545 18.4674 11.4674 18.1809C13.0693 17.8943 14.5522 17.1449 15.7332 16.0253V17.5003C15.7332 17.7213 15.821 17.9333 15.9772 18.0896C16.1335 18.2459 16.3455 18.3337 16.5665 18.3337C16.7875 18.3337 16.9995 18.2459 17.1558 18.0896C17.312 17.9333 17.3998 17.7213 17.3998 17.5003V13.7503C17.3978 13.535 17.3125 13.3289 17.1618 13.1751C17.0111 13.0213 16.8067 12.9318 16.5915 12.9253ZM9.99984 1.66699C7.86349 1.67309 5.81108 2.49942 4.2665 3.97533V2.50033C4.2665 2.27931 4.17871 2.06735 4.02243 1.91107C3.86615 1.75479 3.65418 1.66699 3.43317 1.66699C3.21216 1.66699 3.0002 1.75479 2.84391 1.91107C2.68763 2.06735 2.59984 2.27931 2.59984 2.50033V6.25033C2.59984 6.47134 2.68763 6.6833 2.84391 6.83958C3.0002 6.99586 3.21216 7.08366 3.43317 7.08366H7.18317C7.40418 7.08366 7.61615 6.99586 7.77243 6.83958C7.92871 6.6833 8.0165 6.47134 8.0165 6.25033C8.0165 6.02931 7.92871 5.81735 7.77243 5.66107C7.61615 5.50479 7.40418 5.41699 7.18317 5.41699H5.18317C6.10189 4.45688 7.28658 3.79324 8.58517 3.51125C9.88376 3.22926 11.237 3.34178 12.4712 3.83438C13.7054 4.32698 14.7642 5.17717 15.5117 6.27583C16.2592 7.37449 16.6614 8.67148 16.6665 10.0003C16.6665 10.2213 16.7543 10.4333 16.9106 10.5896C17.0669 10.7459 17.2788 10.8337 17.4998 10.8337C17.7209 10.8337 17.9328 10.7459 18.0891 10.5896C18.2454 10.4333 18.3332 10.2213 18.3332 10.0003C18.3332 8.90598 18.1176 7.82234 17.6988 6.8113C17.28 5.80025 16.6662 4.88159 15.8924 4.10777C15.1186 3.33395 14.1999 2.72012 13.1889 2.30133C12.1778 1.88254 11.0942 1.66699 9.99984 1.66699Z" fill="#7E7E7E"/>
</svg>
