<svg width="28" height="28" viewBox="0 0 28 28" fill="none" xmlns="http://www.w3.org/2000/svg">
<path d="M13.6109 8.74974C12.1994 8.74974 10.8456 9.30289 9.84751 10.2875C8.84938 11.2721 8.28864 12.6075 8.28864 14C8.28864 15.3925 8.84938 16.7279 9.84751 17.7125C10.8456 18.6971 12.1994 19.2503 13.6109 19.2503C15.0225 19.2503 16.3762 18.6971 17.3744 17.7125C18.3725 16.7279 18.9332 15.3925 18.9332 14C18.9332 12.6075 18.3725 11.2721 17.3744 10.2875C16.3762 9.30289 15.0225 8.74974 13.6109 8.74974ZM10.0627 14C10.0627 13.0717 10.4366 12.1814 11.102 11.525C11.7674 10.8686 12.6699 10.4998 13.6109 10.4998C14.552 10.4998 15.4545 10.8686 16.1199 11.525C16.7853 12.1814 17.1591 13.0717 17.1591 14C17.1591 14.9283 16.7853 15.8186 16.1199 16.475C15.4545 17.1314 14.552 17.5002 13.6109 17.5002C12.6699 17.5002 11.7674 17.1314 11.102 16.475C10.4366 15.8186 10.0627 14.9283 10.0627 14ZM10.4133 27.6283C11.4629 27.8754 12.5373 28 13.6159 28C14.6922 27.999 15.7647 27.8736 16.8114 27.6262C17.0866 27.5608 17.3346 27.4134 17.5218 27.2039C17.709 26.9945 17.8262 26.7332 17.8574 26.4557L18.0973 24.3059C18.1381 23.9216 18.3165 23.5642 18.6004 23.2979C18.8844 23.0317 19.2552 22.8741 19.6464 22.8533C19.9068 22.8421 20.1659 22.8904 20.4043 22.9933L22.3963 23.8551C22.5694 23.932 22.757 23.9724 22.9469 23.9736C23.1368 23.9748 23.3249 23.9368 23.499 23.8621C23.6743 23.7886 23.8312 23.6794 23.9603 23.5415C25.4244 21.9837 26.5178 20.1233 27.1608 18.0959C27.2451 17.8269 27.2426 17.5387 27.1536 17.2712C27.0646 17.0037 26.8935 16.7701 26.664 16.6027L24.8942 15.3147C24.6834 15.1636 24.5118 14.9655 24.3935 14.7365C24.2752 14.5076 24.2136 14.2542 24.2136 13.9972C24.2136 13.7402 24.2752 13.4868 24.3935 13.2579C24.5118 13.0289 24.6834 12.8308 24.8942 12.6797L26.6583 11.3945C26.8885 11.2268 27.0601 10.9926 27.1491 10.7244C27.2381 10.4562 27.2402 10.1673 27.1551 9.89779C26.5131 7.8696 25.4182 6.00924 23.9511 4.45362C23.7565 4.24908 23.5025 4.10898 23.224 4.05258C22.9455 3.99617 22.6561 4.02622 22.3956 4.13861L20.4043 5.00385C20.1985 5.09555 19.9743 5.14386 19.7472 5.14386C19.3385 5.14276 18.9446 4.99304 18.6409 4.72336C18.3371 4.45368 18.1448 4.08297 18.1008 3.68218L17.8595 1.54008C17.8284 1.25903 17.709 0.9946 17.5182 0.783652C17.3274 0.572704 17.0746 0.425762 16.7951 0.363318C15.7536 0.134144 14.6907 0.0123837 13.6237 0C12.5494 0.0126218 11.4793 0.134608 10.4303 0.364018C10.151 0.425819 9.89822 0.572202 9.70736 0.782692C9.5165 0.993183 9.39711 1.25726 9.36588 1.53798L9.1246 3.68148C9.07875 4.08294 8.88476 4.45371 8.5796 4.72314C8.26778 4.98415 7.87497 5.13233 7.46617 5.14316C7.24067 5.14301 7.01765 5.09677 6.81118 5.00735L4.82419 4.14211C4.56283 4.02861 4.27217 3.9981 3.99245 4.05479C3.71273 4.11148 3.45781 4.25257 3.26298 4.45852C1.79825 6.01478 0.704759 7.8744 0.062513 9.9013C-0.0224486 10.1707 -0.0202684 10.4594 0.0687511 10.7275C0.157771 10.9956 0.32921 11.2297 0.55926 11.3973L2.32484 12.6825C2.64024 12.9125 2.86314 13.245 2.95416 13.6213C3.04518 13.9976 2.99848 14.3936 2.8223 14.7392C2.70509 14.9684 2.53494 15.1672 2.32555 15.3196L0.55855 16.6069C0.328783 16.7744 0.157526 17.0083 0.0685189 17.2761C-0.0204878 17.5439 -0.0228347 17.8323 0.0618034 18.1015C0.702269 20.1306 1.79593 21.9922 3.26227 23.5492C3.45596 23.7552 3.70995 23.8966 3.98888 23.9535C4.26782 24.0105 4.55782 23.9802 4.81851 23.867L6.81827 23.0011C7.02478 22.9114 7.2476 22.8652 7.47327 22.8652H7.47895C7.88608 22.8661 8.27871 23.0144 8.58224 23.2821C8.88576 23.5498 9.07903 23.9181 9.12531 24.3171L9.36517 26.4571C9.3964 26.735 9.51384 26.9967 9.70143 27.2063C9.88902 27.4159 10.1376 27.5633 10.4133 27.6283ZM16.1358 25.9867C14.4753 26.3367 12.7579 26.3367 11.0974 25.9867L10.8817 24.1232C10.7876 23.2964 10.3884 22.5327 9.76022 21.9776C9.13204 21.4225 8.31878 21.1147 7.4754 21.1131H7.4683C6.99779 21.1102 6.532 21.2057 6.10154 21.3931L4.36576 22.1442C3.23913 20.8918 2.37992 19.4283 1.83945 17.8411L3.37582 16.721C3.80877 16.4061 4.16069 15.9953 4.40322 15.5216C4.64575 15.0479 4.7721 14.5247 4.7721 13.9941C4.7721 13.4634 4.64575 12.9402 4.40322 12.4665C4.16069 11.9928 3.80877 11.582 3.37582 11.2671L1.84016 10.147C2.38321 8.56223 3.24244 7.10077 4.36718 5.84879L6.09302 6.59923C6.52421 6.78879 6.99127 6.8859 7.46333 6.88414H7.47043C8.3159 6.88241 9.13115 6.57375 9.76068 6.01703C10.3902 5.46031 10.79 4.69448 10.8838 3.86559L11.0967 2.0035C11.9292 1.83906 12.7754 1.75094 13.6244 1.74029C14.4668 1.75079 15.3063 1.83829 16.1323 2.0028L16.3452 3.86419C16.4362 4.69303 16.8342 5.45956 17.4628 6.01685C18.0913 6.57413 18.9063 6.88296 19.7514 6.88414C20.2281 6.8952 20.7008 6.79695 21.1324 6.59713L22.8568 5.84739C23.9835 7.09839 24.8431 8.56044 25.3846 10.1463L23.8539 11.2615C23.4178 11.575 23.063 11.9857 22.8184 12.4601C22.5738 12.9346 22.4464 13.4593 22.4464 13.9916C22.4464 14.5239 22.5738 15.0486 22.8184 15.5231C23.063 15.9975 23.4178 16.4082 23.8539 16.7217L25.3902 17.8418C24.8474 19.4265 23.9884 20.888 22.8639 22.14L21.1324 21.391C20.6395 21.1752 20.1018 21.0775 19.5633 21.1059C19.0248 21.1342 18.5007 21.2877 18.0338 21.5539C17.5669 21.8201 17.1704 22.1914 16.8767 22.6376C16.583 23.0837 16.4004 23.5921 16.3438 24.1211L16.1358 25.9867Z" fill="#01BAF2"/>
</svg>
