<svg width="105" height="105" viewBox="0 0 105 105" fill="none" xmlns="http://www.w3.org/2000/svg">
<path d="M52.5001 43.7507V83.1257M52.5001 43.7507L65.6251 56.8757M52.5001 43.7507L39.3751 56.8757M76.5626 65.6257C83.2082 65.6257 87.5001 60.2401 87.5001 53.5944C87.4999 50.9634 86.6372 48.4049 85.0442 46.311C83.4512 44.217 81.2157 42.7029 78.6801 42.0007C78.29 37.0939 76.2564 32.4622 72.9081 28.8542C69.5598 25.2463 65.0926 22.873 60.2285 22.1182C55.3645 21.3633 50.3881 22.271 46.1038 24.6944C41.8195 27.1179 38.4778 30.9155 36.6188 35.4732C32.7051 34.3883 28.5206 34.9025 24.986 36.9029C21.4515 38.9032 18.8563 42.2257 17.7714 46.1394C16.6864 50.0532 17.2007 54.2376 19.201 57.7722C21.2013 61.3068 24.5238 63.902 28.4376 64.9869" stroke="#A0A0A0" stroke-width="7" stroke-linecap="round" stroke-linejoin="round"/>
</svg>
