<svg width="33" height="22" viewBox="0 0 33 22" fill="none" xmlns="http://www.w3.org/2000/svg">
<path d="M7.75 5.55762H25.25V16.0576H7.75V5.55762ZM28.75 0.307617C30.6641 0.307617 32.25 1.89355 32.25 3.80762V8.18262C30.7734 8.18262 29.625 9.38574 29.625 10.8076C29.625 12.2842 30.7734 13.4326 32.25 13.4326V17.8076C32.25 19.7764 30.6641 21.3076 28.75 21.3076H4.25C2.28125 21.3076 0.75 19.7764 0.75 17.8076V13.4326C2.17188 13.4326 3.375 12.2842 3.375 10.8076C3.375 9.38574 2.17188 8.18262 0.75 8.18262V3.80762C0.75 1.89355 2.28125 0.307617 4.25 0.307617H28.75ZM6 16.0576C6 17.042 6.76562 17.8076 7.75 17.8076H25.25C26.1797 17.8076 27 17.042 27 16.0576V5.55762C27 4.62793 26.1797 3.80762 25.25 3.80762H7.75C6.76562 3.80762 6 4.62793 6 5.55762V16.0576Z" fill="#01BAF2"/>
</svg>
