<svg width="12" height="11" viewBox="0 0 12 11" fill="none" xmlns="http://www.w3.org/2000/svg">
<path d="M10.9805 9.14453C11.4121 9.54297 11.4121 10.2402 10.9805 10.6387C10.7812 10.8379 10.5156 10.9375 10.25 10.9375C9.95117 10.9375 9.68555 10.8379 9.48633 10.6387L6 7.15234L2.48047 10.6387C2.28125 10.8379 2.01562 10.9375 1.75 10.9375C1.45117 10.9375 1.18555 10.8379 0.986328 10.6387C0.554688 10.2402 0.554688 9.54297 0.986328 9.14453L4.47266 5.625L0.986328 2.13867C0.554688 1.74023 0.554688 1.04297 0.986328 0.644531C1.38477 0.212891 2.08203 0.212891 2.48047 0.644531L6 4.13086L9.48633 0.644531C9.88477 0.212891 10.582 0.212891 10.9805 0.644531C11.4121 1.04297 11.4121 1.74023 10.9805 2.13867L7.49414 5.6582L10.9805 9.14453Z" fill="white"/>
</svg>
