<svg width="23" height="22" viewBox="0 0 23 22" fill="none" xmlns="http://www.w3.org/2000/svg">
<path d="M21.5859 18.2891C22.4492 19.0859 22.4492 20.4805 21.5859 21.2773C21.1875 21.6758 20.6562 21.875 20.125 21.875C19.5273 21.875 18.9961 21.6758 18.5977 21.2773L11.625 14.3047L4.58594 21.2773C4.1875 21.6758 3.65625 21.875 3.125 21.875C2.52734 21.875 1.99609 21.6758 1.59766 21.2773C0.734375 20.4805 0.734375 19.0859 1.59766 18.2891L8.57031 11.25L1.59766 4.27734C0.734375 3.48047 0.734375 2.08594 1.59766 1.28906C2.39453 0.425781 3.78906 0.425781 4.58594 1.28906L11.625 8.26172L18.5977 1.28906C19.3945 0.425781 20.7891 0.425781 21.5859 1.28906C22.4492 2.08594 22.4492 3.48047 21.5859 4.27734L14.6133 11.3164L21.5859 18.2891Z" fill="#A0A0A0"/>
</svg>
